<?xml version="1.0" encoding="UTF-8"?>
<svg xmlns="http://www.w3.org/2000/svg" viewBox="0 0 2500 2500">
  <defs>
    <style>
      .cls-1, .cls-2 {
        stroke-width: 0px;
      }

      .cls-2 {
        fill:  #b9ff66;
      }
    </style>
  </defs>
  <g id="Background">
    <rect class="cls-2" width="2500" height="2500"/>
  </g>
  <g id="Illustration">
    <g id="Hospitality_courses" data-name="Hospitality courses">
      <g>
        <g>
          <polygon class="cls-1" points="1874.9 2162.68 1767.99 2162.68 1767.99 1221.62 1873.83 1216.27 1874.9 2162.68"/>
          <g>
            <path class="cls-2" d="m2161.56,2162.68h-286.66c-.59,0-1.07-.48-1.07-1.07v-944.23c0-.61.5-1.09,1.11-1.07l286.66,10.84c.58.02,1.03.49,1.03,1.07v933.39c0,.59-.48,1.07-1.07,1.07Z"/>
            <path class="cls-1" d="m2161.56,2164.89h-286.66c-1.81,0-3.28-1.47-3.28-3.28v-944.23c0-.89.37-1.75,1.01-2.37.64-.62,1.48-.98,2.4-.91l286.66,10.83c1.77.07,3.16,1.51,3.16,3.28v933.39c0,1.81-1.47,3.28-3.28,3.28Zm-285.52-4.42h284.38v-931.15l-284.38-10.75v941.9Z"/>
          </g>
          <g>
            <path class="cls-1" d="m2067.47,1671.55c-1.22,0-2.21-.99-2.21-2.21v-382.15c0-1.22.99-2.21,2.21-2.21s2.21.99,2.21,2.21v382.15c0,1.22-.99,2.21-2.21,2.21Z"/>
            <path class="cls-1" d="m1976.79,1535.38c-1.22,0-2.21-.99-2.21-2.21v-112.74c0-1.22.99-2.21,2.21-2.21s2.21.99,2.21,2.21v112.74c0,1.22-.99,2.21-2.21,2.21Z"/>
            <path class="cls-1" d="m1976.79,1921.96c-1.22,0-2.21-.99-2.21-2.21v-194.54c0-1.22.99-2.21,2.21-2.21s2.21.99,2.21,2.21v194.54c0,1.22-.99,2.21-2.21,2.21Z"/>
          </g>
        </g>
        <g>
          <g>
            <polygon class="cls-1" points="1356.99 2162.79 1186.05 2162.79 1186.05 1460.23 1356.06 1436.29 1356.99 2162.79"/>
            <g>
              <path class="cls-2" d="m1818.27,2162.79h-460.48c-.95,0-1.72-.37-1.72-.82v-724.82c0-.47.81-.84,1.79-.82l460.48,8.32c.92.02,1.66.38,1.66.82v716.5c0,.45-.77.82-1.72.82Z"/>
              <path class="cls-1" d="m1818.27,2165h-460.48c-2.28,0-3.93-1.27-3.93-3.03v-724.82c0-.72.3-1.41.83-1.94.73-.72,1.9-1.13,3.2-1.1l460.49,8.32c2.25.04,3.83,1.29,3.83,3.03v716.5c0,1.76-1.65,3.03-3.93,3.03Zm-459.99-4.42h459.5v-713.73l-459.5-8.3v722.03Z"/>
            </g>
          </g>
          <g>
            <path class="cls-1" d="m1588.13,1816.44c-1.22,0-2.21-.99-2.21-2.21v-321.8c0-1.22.99-2.21,2.21-2.21s2.21.99,2.21,2.21v321.8c0,1.22-.99,2.21-2.21,2.21Z"/>
            <path class="cls-1" d="m1466.56,1599.64c-1.22,0-2.21-.99-2.21-2.21v-54.85c0-1.22.99-2.21,2.21-2.21s2.21.99,2.21,2.21v54.85c0,1.22-.99,2.21-2.21,2.21Z"/>
            <path class="cls-1" d="m1466.56,1963.59c-1.22,0-2.21-.99-2.21-2.21v-273.22c0-1.22.99-2.21,2.21-2.21s2.21.99,2.21,2.21v273.22c0,1.22-.99,2.21-2.21,2.21Z"/>
            <path class="cls-1" d="m1709.71,1707.79c-1.22,0-2.21-.99-2.21-2.21v-54.85c0-1.22.99-2.21,2.21-2.21s2.21.99,2.21,2.21v54.85c0,1.22-.99,2.21-2.21,2.21Z"/>
          </g>
        </g>
        <g>
          <g>
            <polygon class="cls-1" points="730.18 2162.79 520.94 2162.79 520.94 1759 730.18 1742.38 730.18 2162.79"/>
            <g>
              <path class="cls-2" d="m1301.13,2162.79h-570.95v-419.53c0-.48,1.1-.87,2.44-.85l568.51,6.9v413.48Z"/>
              <path class="cls-1" d="m1301.13,2165h-570.95c-1.22,0-2.21-.99-2.21-2.21v-419.53c0-.69.28-1.36.8-1.87,1.12-1.11,3.05-1.22,3.87-1.19l568.51,6.9c1.21.02,2.19,1,2.19,2.21v413.48c0,1.22-.99,2.21-2.21,2.21Zm-568.74-4.42h566.52v-409.08l-566.33-6.87c-.07,0-.13,0-.2,0v415.95Z"/>
            </g>
          </g>
          <g>
            <path class="cls-1" d="m881.95,2045.29c-1.22,0-2.21-.99-2.21-2.21v-250.47c0-1.22.99-2.21,2.21-2.21s2.21.99,2.21,2.21v250.47c0,1.22-.99,2.21-2.21,2.21Z"/>
            <path class="cls-1" d="m1181.19,2074.59c-1.22,0-2.21-.99-2.21-2.21v-250.47c0-1.22.99-2.21,2.21-2.21s2.21.99,2.21,2.21v250.47c0,1.22-.99,2.21-2.21,2.21Z"/>
            <path class="cls-1" d="m1031.57,1976.45c-1.22,0-2.21-.99-2.21-2.21v-51.27c0-1.22.99-2.21,2.21-2.21s2.21.99,2.21,2.21v51.27c0,1.22-.99,2.21-2.21,2.21Z"/>
          </g>
        </g>
        <g>
          <g>
            <polygon class="cls-1" points="427.6 2162.79 335.15 2162.79 335.15 1962.52 426.73 1947.58 427.6 2162.79"/>
            <g>
              <path class="cls-2" d="m675.75,2162.79h-248.15c-.48,0-.87-.32-.87-.72v-213.76c0-.4.4-.73.89-.72l248.15,3.35c.48,0,.86.33.86.72v210.4c0,.4-.39.72-.87.72Z"/>
              <path class="cls-1" d="m675.75,2165h-248.15c-1.7,0-3.08-1.32-3.08-2.93v-213.75c0-.77.31-1.49.86-2.04.59-.58,1.45-.89,2.27-.89l248.15,3.35c1.68.02,3.04,1.34,3.04,2.93v210.4c0,1.62-1.38,2.93-3.08,2.93Zm-246.81-4.42h245.46v-207.44l-245.46-3.32v210.76Z"/>
            </g>
          </g>
          <g>
            <path class="cls-1" d="m601.1,2114.14c-1.22,0-2.21-.99-2.21-2.21v-127.43c0-1.22.99-2.21,2.21-2.21s2.21.99,2.21,2.21v127.43c0,1.22-.99,2.21-2.21,2.21Z"/>
            <path class="cls-1" d="m522.63,2068.73c-1.22,0-2.21-.99-2.21-2.21v-37.6c0-1.22.99-2.21,2.21-2.21s2.21.99,2.21,2.21v37.6c0,1.22-.99,2.21-2.21,2.21Z"/>
          </g>
        </g>
      </g>
      <g>
        <g>
          <g>
            <g>
              <polygon class="cls-2" points="386.38 1854.6 388.26 1889.37 411.49 1893.29 413.56 1852.28 386.38 1854.6"/>
              <path class="cls-1" d="m411.49,1895.51c-.12,0-.25-.01-.37-.03l-23.23-3.92c-1.02-.17-1.78-1.03-1.84-2.06l-1.89-34.77c-.06-1.19.83-2.22,2.02-2.32l27.18-2.32c.63-.06,1.26.17,1.73.61.46.44.7,1.07.67,1.7l-2.07,41.01c-.03.63-.33,1.22-.82,1.61-.4.32-.88.49-1.38.49Zm-21.12-8.02l19.03,3.21,1.81-36-22.52,1.92,1.67,30.86Z"/>
            </g>
            <g>
              <g>
                <path class="cls-2" d="m412.14,1952.09c-9.81.88-25.85,2.88-44.47-.66-6.09-1.16-9.86-7.33-8.07-13.27,4.97-16.58,13.69-48.08,26.65-62.23l2.81,6.92,4.39-6.09c.63-1,1.69-1.65,2.87-1.74l9.23-.7c1.93-.15,3.65,1.21,3.95,3.13l.26,4.17,6.19-6.02,1.58,36.76c.31,7.16,1.12,12.7,2.44,19.75l1.63,8.73c.46,5.71-3.74,10.75-9.44,11.26Z"/>
                <path class="cls-1" d="m390.04,1955.66c-6.89,0-14.59-.51-22.78-2.07-3.52-.67-6.61-2.82-8.47-5.88-1.86-3.06-2.33-6.78-1.31-10.2l1.07-3.6c5.1-17.18,13.65-45.94,26.06-59.49.51-.56,1.27-.82,2.02-.68.75.13,1.37.64,1.66,1.35l1.3,3.21,2.05-2.85c.91-1.47,2.62-2.51,4.5-2.65l9.23-.7c2.95-.2,5.59,1.79,6.23,4.62l2.8-2.72c.63-.61,1.55-.78,2.36-.47.81.32,1.35,1.09,1.39,1.96l1.58,36.76c.31,7.13,1.11,12.53,2.4,19.43l1.63,8.73c.01.08.02.15.03.23.56,6.9-4.58,13.02-11.45,13.64l-2.62.24c-5.28.5-11.98,1.13-19.68,1.13Zm22.1-3.58h.02-.02Zm-26.57-71.92c-10.53,13.75-18.12,39.32-22.79,55.01l-1.07,3.61c-.68,2.26-.38,4.61.85,6.63,1.21,2,3.22,3.39,5.52,3.83,16.74,3.18,31.47,1.8,41.22.88l2.64-.24c4.43-.4,7.74-4.32,7.44-8.77l-1.6-8.61c-1.29-6.92-2.16-12.7-2.47-20.06l-1.37-31.83-2.66,2.58c-.62.6-1.54.78-2.34.48-.81-.31-1.36-1.06-1.41-1.93l-.26-4.17c-.1-.56-.78-1.11-1.58-1.06l-9.23.7c-.48.04-.91.3-1.16.7l-4.47,6.22c-.47.65-1.26.99-2.06.9-.8-.1-1.48-.62-1.79-1.37l-1.42-3.51Z"/>
              </g>
              <path class="cls-1" d="m391.01,1945.06c-7.74,0-16.61-.78-25.35-3.25-1.18-.33-1.86-1.55-1.53-2.73.33-1.18,1.56-1.85,2.73-1.53,22.4,6.31,46.51.87,46.75.81,1.18-.28,2.38.47,2.65,1.66.28,1.19-.46,2.38-1.65,2.65-.64.15-10.52,2.39-23.6,2.39Z"/>
              <path class="cls-1" d="m403.21,1919.3h-.04l-21.94-.38c-1.22-.02-2.19-1.03-2.17-2.25.02-1.22.95-2.14,2.25-2.17l21.94.38c1.22.02,2.19,1.03,2.17,2.25-.02,1.21-1.01,2.17-2.21,2.17Z"/>
            </g>
          </g>
          <g>
            <g>
              <polygon class="cls-2" points="494.55 1846.14 495.51 1896.79 523.63 1898.21 527.48 1847.8 494.55 1846.14"/>
              <path class="cls-1" d="m523.63,1900.42s-.08,0-.11,0l-28.12-1.42c-1.16-.06-2.08-1.01-2.1-2.17l-.96-50.65c-.01-.61.23-1.2.67-1.63.44-.43,1.04-.66,1.65-.62l32.93,1.66c.6.03,1.15.3,1.55.75s.59,1.04.55,1.63l-3.85,50.41c-.09,1.16-1.06,2.04-2.2,2.04Zm-25.95-5.74l23.91,1.21,3.51-45.99-28.29-1.43.87,46.22Z"/>
            </g>
            <g>
              <g>
                <path class="cls-2" d="m486.73,1924.91c-.31,4.77,2.74,9.13,7.33,10.44,15.98,4.58,51.97,14.8,62.28,16.87,13.38,2.69,30.16-.61,37.68-8.14,7.52-7.53-14.6-27.54-25.21-34.95-15.76-11.01-30.37-31.92-36.88-33.16-6.51-1.24-19.7,17.17-19.7,17.17l-19.57-9.41s-4.35,16.97-5.93,41.17Z"/>
                <path class="cls-1" d="m566,1955.37c-3.42,0-6.84-.31-10.1-.97-10.03-2.02-43.43-11.46-62.45-16.92-5.55-1.59-9.3-6.94-8.93-12.72,1.57-24.13,5.95-41.4,5.99-41.57.16-.64.61-1.18,1.21-1.46.6-.28,1.29-.27,1.89.01l17.91,8.62c4.23-5.68,14.16-17.82,20.81-16.56,3.78.72,8.39,5.4,16.21,13.62,6.49,6.82,13.85,14.54,21.52,19.9,6.86,4.79,26.66,20.97,27.64,32.06.22,2.48-.52,4.64-2.14,6.27-6.04,6.04-17.85,9.71-29.58,9.71Zm-77.07-30.31c-.24,3.71,2.17,7.15,5.73,8.17,15.26,4.37,51.86,14.77,62.11,16.83,12.93,2.6,28.94-.78,35.68-7.53.44-.44,1-1.2.86-2.75-.67-7.52-15.39-21.57-25.77-28.82-8.04-5.61-15.56-13.51-22.19-20.48-5.54-5.82-11.27-11.83-13.83-12.32-3.05-.62-11.51,7.95-17.49,16.29-.63.87-1.79,1.16-2.76.7l-17.09-8.22c-1.25,5.65-4.06,19.87-5.25,38.12Z"/>
              </g>
              <path class="cls-1" d="m566.95,1942.36c-27.27,0-67.93-14.87-70.08-15.66-1.15-.42-1.73-1.7-1.31-2.84.42-1.14,1.7-1.73,2.84-1.31.64.24,64.8,23.7,84.05,12.41,1.05-.62,2.41-.27,3.03.79.62,1.05.26,2.41-.79,3.03-4.37,2.56-10.6,3.58-17.74,3.58Z"/>
              <path class="cls-1" d="m533.92,1913.88c-.64,0-1.28-.28-1.72-.81-.77-.95-.63-2.34.32-3.11l14.95-12.19c.95-.77,2.34-.63,3.11.32.77.95.63,2.34-.32,3.11l-14.95,12.19c-.41.33-.91.5-1.4.5Z"/>
            </g>
          </g>
          <g>
            <g>
              <path class="cls-2" d="m440.67,1438.16c-23.09-2.12-43.5,14.94-45.51,38.06-6,68.9-17.87,202.45-23.21,242.11-7.3,54.24,3.51,142.56,3.51,142.56l43.52-.09s6.15-78.39,10.87-119.16c1.16-9.99,3.92-19.72,8.12-28.86,6.59-14.37,16.93-39.13,21.65-62.31,7.24-35.47,28.59-90.99,28.59-90.99,0,0,.83,284.76,1.17,306.98,0,0,33.96,3.23,46.55-3.83,0,0,26.8-103.87,26.51-159.93-.25-48.3,12.04-200.33,15.45-241.49.48-5.75-3.77-10.79-9.5-11.32l-127.71-11.72Z"/>
              <path class="cls-1" d="m506.5,1869.41c-9.18,0-16.69-.7-17.34-.76-1.12-.11-1.99-1.04-2-2.17-.29-19.33-.97-240.08-1.13-294.81-6.6,18.12-19.1,54-24.25,79.23-4.87,23.88-15.76,49.59-21.81,62.79-4.14,9.02-6.81,18.51-7.93,28.19-4.66,40.26-10.8,118.29-10.86,119.07-.09,1.15-1.05,2.04-2.2,2.04l-43.52.09h0c-1.12,0-2.06-.83-2.2-1.94-.11-.89-10.76-89.23-3.5-143.13,5.26-39.1,16.8-168.41,23.2-242.01,1.02-11.77,6.58-22.42,15.64-30,9.06-7.57,20.51-11.14,32.28-10.07l127.71,11.72c6.92.64,12.08,6.78,11.51,13.7-3.69,44.52-15.69,193.47-15.44,241.3.29,55.7-26.31,159.46-26.58,160.5-.15.58-.53,1.08-1.06,1.38-7,3.93-19.86,4.86-30.5,4.86Zm-14.95-5c7.15.53,31.8,1.91,42.46-3.29,2.67-10.57,26.47-106.13,26.2-158.42-.25-48.01,11.77-197.13,15.46-241.69.37-4.51-2.99-8.52-7.5-8.93l-127.71-11.72c-10.58-.99-20.89,2.24-29.03,9.05-8.15,6.81-13.15,16.4-14.07,26.99-6.41,73.64-17.95,203.03-23.22,242.22-6.59,48.91,1.77,126.77,3.28,140.05l39.51-.08c1-12.61,6.47-80.52,10.72-117.2,1.18-10.15,3.97-20.08,8.3-29.53,5.98-13.03,16.71-38.38,21.5-61.83,7.19-35.24,28.48-90.79,28.69-91.35.38-.99,1.41-1.58,2.47-1.38,1.05.19,1.81,1.1,1.81,2.17,0,2.78.8,271.7,1.14,304.94Zm44.36-1.79h.02-.02Z"/>
            </g>
            <path class="cls-1" d="m411,1728.08c-4.31,0-8.6-1.23-12.27-3.62-1.02-.67-1.31-2.04-.65-3.06.67-1.03,2.04-1.32,3.06-.65,4.71,3.06,10.67,3.75,15.95,1.85,1.14-.42,2.42.18,2.83,1.33.41,1.15-.18,2.42-1.33,2.83-2.45.89-5.03,1.32-7.59,1.32Z"/>
            <path class="cls-1" d="m400.97,1554.41c-1.12,0-2.08-.84-2.2-1.98-.13-1.22.76-2.31,1.97-2.43,6.7-.7,14.67-5.47,16.95-16.76.24-1.2,1.41-1.98,2.61-1.73,1.2.24,1.97,1.41,1.73,2.61-2.75,13.64-12.56,19.42-20.82,20.28-.08,0-.16.01-.23.01Z"/>
            <path class="cls-1" d="m514.41,1813.61c-.05,0-.1,0-.15,0-1.22-.08-2.14-1.14-2.05-2.36,1.81-26.26,32.86-71.71,34.18-73.63.69-1.01,2.07-1.26,3.08-.57,1.01.69,1.26,2.07.57,3.08-.32.46-31.69,46.38-33.41,71.43-.08,1.17-1.05,2.06-2.2,2.06Z"/>
          </g>
        </g>
        <g>
          <g>
            <path class="cls-2" d="m565.67,1283.85c7.29-28.14,21.59-25.53,32.3-18.38,7.7,5.14,13.23,13,15.6,21.95,1.95,7.39,5.6,18.1,12.01,27.84,12,18.23,51.32,22.79,64.81,21.65,5.89-.5,20.16-20.69,30.56-18.3,7.47,1.72-5.18,14.38-3.42,15.08,6.55,2.58,12.49,1.43,18.2.95,9.27-.79,17.35-3.97,20.83-4.27,4.39-.38,6.23,4.01,4.73,8.16-2.14,5.94-7.12,15.07-16.27,18.85-16.35,6.77-45.47,4.01-55.64,2.88-7.75-.87-97.19,11.97-111.66-24.65-3.01-7.62-15.13-39.92-12.06-51.76Z"/>
            <path class="cls-1" d="m714.58,1363.99c-9.54,0-18.77-.78-25.43-1.52-1.04-.12-4.72.11-8.96.38-25.1,1.59-91.76,5.84-104.51-26.42-2.61-6.61-15.48-40.26-12.15-53.13,3.39-13.07,8.69-21.07,15.75-23.76,5.82-2.21,12.52-.84,19.92,4.1,8.12,5.42,13.99,13.67,16.51,23.23,1.88,7.14,5.45,17.66,11.72,27.19,11.38,17.28,49.52,21.78,62.78,20.66,1.56-.13,5.52-3.66,8.69-6.5,7.07-6.31,15.09-13.46,22.55-11.75,2.34.54,3.33,1.88,3.75,2.92,1.37,3.4-1.61,7.96-4,11.62-.26.41-.57.87-.85,1.31,4.34,1.22,8.41.8,12.68.37.85-.09,1.69-.17,2.52-.24,5.57-.47,10.64-1.82,14.71-2.91,2.58-.68,4.61-1.23,6.11-1.36,2.5-.23,4.65.68,6.07,2.53,1.69,2.2,2.05,5.49.93,8.58-1.65,4.56-6.65,15.66-17.51,20.15-8.4,3.47-20.06,4.55-31.3,4.55Zm-26.28-5.98c.55,0,.99.02,1.34.06,14.1,1.58,39.94,3.33,54.55-2.72,9.23-3.82,13.59-13.55,15.04-17.56.6-1.66.49-3.38-.28-4.38-.49-.64-1.2-.91-2.18-.82-1.12.1-3.09.62-5.36,1.23-4.01,1.07-9.51,2.53-15.47,3.04-.81.07-1.63.15-2.45.24-4.99.51-10.64,1.08-16.75-1.33-.7-.27-1.23-.84-1.45-1.55-.48-1.5.42-2.88,2.22-5.63,2.79-4.27,4-6.81,3.6-7.55-.03-.03-.2-.16-.63-.25-5.24-1.2-12.65,5.42-18.61,10.74-4.6,4.11-8.24,7.35-11.27,7.6-14.46,1.25-54.28-3.54-66.85-22.63-6.6-10.03-10.34-21.03-12.3-28.49-2.25-8.51-7.46-15.86-14.69-20.68-6.14-4.1-11.49-5.33-15.89-3.65-5.65,2.15-10.03,9.13-13.04,20.74-2.48,9.57,6.36,36.18,11.98,50.4,11.56,29.26,75.9,25.17,100.11,23.63,4.18-.27,6.78-.42,8.4-.42Zm-122.63-74.16h.02-.02Z"/>
          </g>
          <g>
            <path class="cls-2" d="m369.89,1326.45s-6.36-97.06,48.74-117.24c53.05-19.42,123.21-19.84,161.09,5.27,11.83,7.85,26.06,43.98,34.91,69.46,5.74,16.52,18.81,29.44,35.4,34.98l44.23,14.76.52,20.13-109.08-7.09c-9.89-1.97-12.66,72.61-13.14,118.05,0,0-50.2-15.5-70.65-24.77-20.45-9.28-71.39,31.48-104.43,29.93,14.58-46.86,13.93-98.69,6.45-152.76l-34.04,9.29Z"/>
            <path class="cls-1" d="m399.37,1472.18c-.67,0-1.33-.02-1.99-.05-.68-.03-1.31-.38-1.71-.94-.39-.56-.5-1.27-.3-1.93,12.76-41,14.9-88.49,6.71-149.3l-31.6,8.63c-.64.17-1.33.05-1.87-.33-.54-.39-.88-.99-.92-1.66-.26-4.03-5.83-98.95,50.19-119.46,56.84-20.81,126.95-18.44,163.07,5.51,12.09,8.02,26.13,42.8,35.78,70.57,5.48,15.76,18.19,28.33,34.01,33.6l44.23,14.76c.88.29,1.49,1.11,1.51,2.04l.52,20.13c.02.62-.23,1.22-.68,1.65-.45.43-1.05.64-1.68.61l-109.08-7.09c-.1,0-.19-.02-.29-.04-4.4,1.9-9.68,38.99-10.5,115.9,0,.7-.34,1.35-.91,1.76-.57.41-1.29.54-1.96.33-2.06-.63-50.57-15.64-70.91-24.87-9.6-4.36-27.92,3.99-47.32,12.82-18.75,8.54-38.11,17.35-54.3,17.35Zm4.56-157.23c.43,0,.85.13,1.22.37.53.35.89.91.97,1.54,8.49,61.28,6.69,109.33-5.66,150.88,15.03-.39,33.49-8.79,51.38-16.94,21.22-9.67,39.55-18,50.98-12.83,17.31,7.85,56.67,20.37,67.56,23.79.51-41.51,2.79-108.67,12.13-116.25,1.3-1.05,2.57-1.15,3.45-1l106.54,6.92-.41-16.15-42.76-14.27c-17.11-5.71-30.86-19.3-36.79-36.35-13.32-38.35-25.41-62.61-34.04-68.34-35.05-23.24-103.45-25.41-159.1-5.04-47.85,17.52-47.89,96.57-47.41,112.3l31.36-8.56c.19-.05.39-.08.58-.08Z"/>
          </g>
          <g>
            <path class="cls-2" d="m426.62,1203.63l-2.94,111.85-16.66,54.84c3.25,29.71-2.38,66.52-12.38,106.83l108.29-30.45,75.81,26.84c-3.94-49.17-2.9-96.15,6.19-139.6l-5.21-119.45c-7.66-5-15.48-9.52-23.67-12.93-10.04,10.27-27.36,38.42-43.83,64.51-17.41-23.5-36.62-46.22-57.76-68.12-8.13-.15-17.88,2.56-27.85,5.68Z"/>
            <path class="cls-1" d="m394.64,1479.36c-.57,0-1.12-.22-1.54-.62-.57-.55-.8-1.35-.61-2.12,11.17-45.07,15.21-79.76,12.33-106.06-.03-.3,0-.6.08-.88l16.57-54.55,2.93-111.55c.02-.95.65-1.77,1.55-2.05,9.22-2.88,19.79-5.98,28.55-5.78.59.01,1.14.25,1.55.68,20.09,20.8,38.92,42.91,56.01,65.75l3.39-5.38c15.35-24.37,29.84-47.39,39.02-56.77.63-.65,1.59-.84,2.43-.49,7.42,3.09,15.06,7.26,24.03,13.12.6.39.97,1.04,1,1.75l5.21,119.45c0,.19,0,.37-.04.55-8.41,40.22-10.42,85.67-6.15,138.97.06.75-.26,1.47-.86,1.93-.6.46-1.38.58-2.09.33l-75.15-26.6-107.62,30.26c-.2.05-.4.08-.6.08Zm14.62-108.83c2.81,26.39-.87,59.36-11.57,103.46l104.64-29.42c.44-.12.91-.11,1.34.05l72.6,25.7c-3.94-52.15-1.83-96.85,6.44-136.56l-5.15-118.03c-7.76-5.02-14.49-8.72-20.95-11.52-8.95,9.76-23.41,32.72-37.41,54.95l-5.11,8.11c-.39.62-1.06,1-1.79,1.03-.74.07-1.42-.31-1.86-.89-17.31-23.36-36.46-45.98-56.92-67.23-7.47.06-16.55,2.58-24.73,5.11l-2.9,110.27c0,.2-.04.4-.09.59l-16.52,54.41Zm14.41-55.05h.02-.02Z"/>
          </g>
          <g>
            <ellipse class="cls-2" cx="673.89" cy="1356.13" rx="135.37" ry="11.1"/>
            <path class="cls-1" d="m673.89,1369.43c-36.22,0-70.28-1.16-95.9-3.26-41.68-3.42-41.68-7.57-41.68-10.05s0-6.63,41.68-10.05c25.63-2.1,59.69-3.26,95.9-3.26s70.27,1.16,95.9,3.26c41.68,3.42,41.68,7.57,41.68,10.05s0,6.63-41.68,10.05c-25.62,2.1-59.68,3.26-95.9,3.26Zm-132.4-13.31c7.89,3.92,55.32,8.88,132.4,8.88s124.51-4.96,132.4-8.88c-7.89-3.92-55.33-8.88-132.4-8.88s-124.5,4.96-132.4,8.88Zm265.75.65h.02-.02Z"/>
          </g>
          <g>
            <path class="cls-2" d="m551.55,1342.27c-14.67,3.4-25.43,5.41-28.83.88-6.33-8.44.35-21.55-6.42-17.39-7,4.31-9.76,10.3-10.73,15.4-1.28,6.75-6.68,11.97-13.5,12.8-.78.09-1.58.18-2.39.27,2.39,7.92-.95,17.97,1.39,25.9,10.93-1.64,24.81-5.16,27.59-5.75,5.68-1.2,17.01-.05,34.84-10.33,16.45-9.48,12.72-25.18-1.95-21.77Z"/>
            <path class="cls-1" d="m491.08,1382.34c-.97,0-1.84-.63-2.12-1.58-1.28-4.31-1.02-9.05-.77-13.64.24-4.44.47-8.64-.62-12.25-.19-.63-.09-1.31.27-1.86.36-.55.95-.91,1.61-.98.8-.09,1.59-.17,2.35-.27,5.82-.7,10.48-5.13,11.59-11.01,1.36-7.14,5.42-12.98,11.74-16.87.79-.49,2.9-1.79,4.8-.72,1.99,1.12,1.97,3.6,1.95,6.73-.03,3.53-.07,8.36,2.61,11.93,2.84,3.79,16.55.62,26.56-1.7,6.96-1.6,12.75.63,14.76,5.72,2.11,5.36-.49,13.95-11.2,20.13-14.43,8.32-24.99,9.39-31.3,10.03-1.66.17-3.09.31-4.19.55-.57.12-1.63.37-3.04.7-5.57,1.31-15.95,3.76-24.68,5.07-.11.02-.22.02-.33.02Zm1.32-26.19c.62,3.63.41,7.47.21,11.21-.2,3.65-.39,7.14.16,10.26,8.1-1.33,17.22-3.48,22.31-4.68,1.45-.34,2.54-.6,3.14-.72,1.33-.28,2.88-.44,4.66-.62,6.34-.64,15.93-1.62,29.53-9.46,8.06-4.65,10.78-10.9,9.29-14.67-1.17-2.98-4.88-4.15-9.64-3.03-16.02,3.71-26.85,5.72-31.1.05-3.57-4.76-3.52-10.7-3.49-14.62,0-.69.01-1.53-.02-2.2-5.3,3.27-8.57,7.95-9.7,13.92-1.47,7.77-7.64,13.61-15.35,14.57Zm59.15-13.88h.02-.02Z"/>
          </g>
          <path class="cls-2" d="m496.75,1380.12c-41.09,6.49-70.56,8.91-92.97,5.05-19.29-3.32-33.64-19.68-34.79-39.23-.96-16.31.03-34.39,4-52.51l47.44,20.64c7.24,32.93,8.25,30.45,71.16,37.16l5.16,28.9Z"/>
          <path class="cls-1" d="m428.41,1389.22c-18.83,0-34.51-2.56-47.4-8.84-6.67-3.25-11.33-9.73-12.48-17.34-2.54-16.92-2.78-52.2.72-74.09.19-1.21,1.32-2.03,2.53-1.84,1.21.19,2.03,1.33,1.84,2.53-3.43,21.5-3.2,56.14-.71,72.74.93,6.17,4.68,11.41,10.04,14.02,24.76,12.05,60.97,9.72,111.22,1.89l-4.47-25.04-4.11-.44c-53.96-5.73-57.19-6.07-63.71-34.11-.28-1.19.46-2.38,1.65-2.66,1.19-.29,2.38.46,2.66,1.65q5.81,24.98,59.87,30.72l5.76.61c.98.1,1.77.84,1.94,1.81l5.16,28.9c.1.59-.03,1.19-.38,1.67-.34.48-.87.81-1.46.9-26.52,4.19-49.28,6.91-68.68,6.91Z"/>
          <path class="cls-1" d="m476.06,1379.17c-1.22,0-2.21-.99-2.21-2.21v-16c0-1.22.99-2.21,2.21-2.21s2.21.99,2.21,2.21v16c0,1.22-.99,2.21-2.21,2.21Z"/>
          <path class="cls-1" d="m509.9,1320.67s-.06,0-.09,0c-1.22-.05-2.17-1.08-2.12-2.3l1.55-39.48c.05-1.22,1.11-2.24,2.3-2.12,1.22.05,2.17,1.08,2.12,2.3l-1.55,39.48c-.05,1.19-1.03,2.13-2.21,2.13Z"/>
          <path class="cls-1" d="m502.94,1438.33s-.08,0-.13,0c-1.22-.07-2.15-1.11-2.08-2.33l2.66-47.2c.07-1.22,1.15-2.13,2.33-2.08,1.22.07,2.15,1.11,2.08,2.33l-2.66,47.2c-.07,1.18-1.04,2.09-2.21,2.09Z"/>
          <g>
            <rect class="cls-2" x="444.67" y="1261.94" width="41.26" height="24.77"/>
            <path class="cls-1" d="m485.93,1288.93h-41.26c-1.22,0-2.21-.99-2.21-2.21v-24.77c0-1.22.99-2.21,2.21-2.21h41.26c1.22,0,2.21.99,2.21,2.21v24.77c0,1.22-.99,2.21-2.21,2.21Zm-39.04-4.42h36.83v-20.35h-36.83v20.35Z"/>
          </g>
          <path class="cls-1" d="m464.07,1269.87c-1.22,0-2.21-.99-2.21-2.21v-14.66c0-1.22.99-2.21,2.21-2.21s2.21.99,2.21,2.21v14.66c0,1.22-.99,2.21-2.21,2.21Z"/>
          <path class="cls-1" d="m511.64,1250.24c-1.18,0-2.16-.93-2.21-2.12l-.97-22.47c-.05-1.22.89-2.25,2.11-2.31,1.22-.05,2.25.89,2.31,2.12l.97,22.47c.05,1.22-.89,2.25-2.11,2.31-.03,0-.06,0-.1,0Z"/>
          <g>
            <g>
              <path class="cls-1" d="m616.79,1309.27c-8.39,0-15.21-6.82-15.21-15.21v-72.04c0-1.22.99-2.21,2.21-2.21h26c1.22,0,2.21.99,2.21,2.21v72.04c0,8.39-6.82,15.21-15.21,15.21Zm-10.79-85.04v69.83c0,5.95,4.84,10.79,10.79,10.79s10.79-4.84,10.79-10.79v-69.83h-21.58Z"/>
              <path class="cls-1" d="m616.79,1304.86c-5.96,0-10.81-4.85-10.81-10.81v-44.45h21.61v44.45c0,5.96-4.85,10.81-10.81,10.81Z"/>
              <path class="cls-1" d="m632.3,1359.22h-31.01c-1.7,0-3.08-1.38-3.08-3.08,0-1.3.83-2.47,2.06-2.9l5.98-2.09c4.3-1.5,7.18-5.57,7.18-10.13v-33.97c0-1.22.99-2.21,2.21-2.21h2.31c1.22,0,2.21.99,2.21,2.21v33.97c0,4.56,2.89,8.63,7.18,10.13l5.97,2.09c1.24.44,2.06,1.61,2.06,2.91,0,1.7-1.38,3.08-3.08,3.08Zm-.45-1.81h.02-.02Zm-22.84-2.61h15.58c-3.6-1.65-6.37-4.63-7.79-8.23-1.42,3.59-4.19,6.58-7.79,8.23Z"/>
            </g>
            <g>
              <path class="cls-1" d="m652.89,1309.27c-8.39,0-15.21-6.82-15.21-15.21v-72.04c0-1.22.99-2.21,2.21-2.21h26c1.22,0,2.21.99,2.21,2.21v72.04c0,8.39-6.82,15.21-15.21,15.21Zm-10.79-85.04v69.83c0,5.95,4.84,10.79,10.79,10.79s10.79-4.84,10.79-10.79v-69.83h-21.58Z"/>
              <path class="cls-1" d="m652.89,1304.86c-5.96,0-10.81-4.85-10.81-10.81v-44.45h21.61v44.45c0,5.96-4.85,10.81-10.81,10.81Z"/>
              <path class="cls-1" d="m668.39,1359.22h-31.01c-1.7,0-3.08-1.38-3.08-3.08,0-1.31.83-2.48,2.07-2.91l5.97-2.09c4.3-1.5,7.18-5.57,7.18-10.13v-33.97c0-1.22.99-2.21,2.21-2.21h2.31c1.22,0,2.21.99,2.21,2.21v33.97c0,4.56,2.89,8.63,7.18,10.13l5.97,2.09c1.23.43,2.06,1.6,2.06,2.91,0,1.7-1.38,3.08-3.08,3.08Zm-.45-1.81s0,0,0,0h0Zm-30.11,0h0,0Zm7.26-2.61h15.58c-3.6-1.65-6.37-4.63-7.79-8.22-1.42,3.59-4.19,6.58-7.79,8.22Z"/>
            </g>
            <g>
              <path class="cls-1" d="m688.99,1309.27c-8.39,0-15.21-6.82-15.21-15.21v-72.04c0-1.22.99-2.21,2.21-2.21h26c1.22,0,2.21.99,2.21,2.21v72.04c0,8.39-6.82,15.21-15.21,15.21Zm-10.79-85.04v69.83c0,5.95,4.84,10.79,10.79,10.79s10.79-4.84,10.79-10.79v-69.83h-21.58Z"/>
              <path class="cls-1" d="m688.99,1304.86c-5.96,0-10.81-4.85-10.81-10.81v-44.45h21.61v44.45c0,5.96-4.85,10.81-10.81,10.81Z"/>
              <path class="cls-1" d="m704.49,1359.22h-31.01c-1.7,0-3.08-1.38-3.08-3.08,0-1.31.83-2.48,2.07-2.91l5.97-2.09c4.3-1.5,7.18-5.57,7.18-10.13v-33.97c0-1.22.99-2.21,2.21-2.21h2.31c1.22,0,2.21.99,2.21,2.21v33.97c0,4.56,2.89,8.63,7.18,10.13l5.97,2.09c1.23.43,2.06,1.6,2.06,2.91,0,1.7-1.38,3.08-3.08,3.08Zm-.45-1.81s0,0,0,0h0Zm-30.11,0h0,0Zm7.26-2.61h15.58c-3.6-1.65-6.37-4.63-7.79-8.22-1.42,3.59-4.19,6.58-7.79,8.22Z"/>
            </g>
            <g>
              <path class="cls-1" d="m725.6,1309.27c-8.39,0-15.21-6.82-15.21-15.21v-72.04c0-1.22.99-2.21,2.21-2.21h26c1.22,0,2.21.99,2.21,2.21v72.04c0,8.39-6.82,15.21-15.21,15.21Zm-10.79-85.04v69.83c0,5.95,4.84,10.79,10.79,10.79s10.79-4.84,10.79-10.79v-69.83h-21.58Z"/>
              <path class="cls-1" d="m725.6,1304.86c-5.96,0-10.81-4.85-10.81-10.81v-44.45h21.61v44.45c0,5.96-4.85,10.81-10.81,10.81Z"/>
              <path class="cls-1" d="m741.11,1359.22h-31.01c-1.7,0-3.08-1.38-3.08-3.08,0-1.3.83-2.47,2.06-2.9l5.98-2.09c4.3-1.5,7.18-5.57,7.18-10.13v-33.97c0-1.22.99-2.21,2.21-2.21h2.31c1.22,0,2.21.99,2.21,2.21v33.97c0,4.56,2.89,8.63,7.18,10.13l5.97,2.09c1.24.44,2.06,1.61,2.06,2.91,0,1.7-1.38,3.08-3.08,3.08Zm-.45-1.81h.02-.02Zm-22.84-2.61h15.58c-3.6-1.65-6.37-4.63-7.79-8.23-1.42,3.59-4.19,6.58-7.79,8.23Z"/>
            </g>
          </g>
        </g>
        <g>
          <path class="cls-1" d="m506.55,1171.88c-4.58,3.79-13.38,8.26-19.91,4.54-4.86-2.76-7.32-9.42-6.77-16.87-2.32.07-5.34-.24-7.4-2.26-3.18-3.11-2.28-8.49-1.97-12.04,1.43-16.39-7.97-19.39-5.08-30.41,2.27-8.66,9.41-13.53,10.74-14.44,6.74-4.6,11.05-2.79,22.1-5.1,18.6-3.89,19.58-11.77,31.68-11.2.7.03,17.15,1.05,22.16,12.71,4.08,9.48-1.8,20.46-7.58,26.1-7.49,7.29-12.4,3.26-19.85,9.31-13.08,10.63-4.5,28.4-18.11,39.66Z"/>
          <g>
            <path class="cls-2" d="m544.22,1140.82c-3.63-3.47-7.47-10.33-8.66-15.22-4.33-17.83-20.5-21.12-22.18-3.78-.45,4.62-17.33,3.53-15.57,8.49,4.59,12.93,4.88,9.53-2.74,13.83-.84,0-1.68.13-2.48.46-3.87,1.57-5.47,6.65-3.57,11.33,1.15,2.84,3.34,4.87,5.73,5.69l-1.01,20.02c-.38,7.5-2.1,11.82-9.18,14.31,0,0,26.96,11.57,25.14,10.64l23.98-8.9c-7.34-3.75-11.68-9.42-11.52-17.67l.16-3.92c2.14.3,4.23.26,6.18-.2,9.07-2.15,12.56-12.31,11.69-25.21l3.95-3.59c1.84-1.68,1.88-4.57.08-6.29Z"/>
            <path class="cls-1" d="m510.41,1208.77c-.39,0-.91-.1-1.64-.32l-.06.12c-.14-.08-.27-.16-.39-.26-2.1-.7-5.68-2.23-12.02-4.93-6.3-2.69-12.6-5.39-12.6-5.39-.84-.36-1.37-1.2-1.34-2.11.03-.91.62-1.71,1.48-2.01,5.53-1.94,7.33-4.82,7.71-12.34l.93-18.5c-2.42-1.29-4.37-3.5-5.5-6.27-2.35-5.81-.21-12.18,4.79-14.22.86-.35,1.76-.55,2.71-.6,1.19-.65,2.19-1.12,2.99-1.5.5-.23,1.04-.49,1.36-.68-.14-.72-.74-2.32-1.37-4.01-.48-1.27-1.06-2.82-1.73-4.71-.41-1.15-.33-2.29.22-3.29,1.31-2.39,4.81-3.18,8.85-4.1,2.05-.46,5.88-1.33,6.41-2.17.74-7.88,4.55-12.89,10.17-13.29,5.82-.41,13.37,4.7,16.32,16.88,1.11,4.56,4.79,11.04,8.04,14.14h0c1.3,1.24,2.03,2.99,2.01,4.79s-.8,3.53-2.13,4.74l-3.16,2.88c.73,14.62-4.14,24.23-13.45,26.43-1.44.34-2.98.49-4.58.45l-.07,1.61c-.13,6.88,3.24,12,10.32,15.61.78.4,1.25,1.22,1.2,2.1-.05.88-.62,1.64-1.44,1.94l-23.06,8.56c-.21.29-.49.45-.98.45Zm-20.58-12.97c7.9,3.39,17.11,7.31,19.86,8.44l18.94-7.03c-5.9-4.27-8.82-10.05-8.68-17.22l.16-3.96c.03-.62.31-1.21.79-1.61.48-.4,1.11-.58,1.72-.49,1.95.27,3.76.21,5.36-.17,10.26-2.43,10.4-16.83,9.99-22.91-.05-.67.22-1.33.72-1.79l3.95-3.59c.43-.39.67-.93.68-1.52,0-.59-.22-1.13-.64-1.53-3.89-3.71-7.97-10.87-9.28-16.3-2.22-9.16-7.68-13.83-11.71-13.51-3.28.23-5.57,3.75-6.12,9.42-.37,3.8-5.16,4.89-9.8,5.94-1.88.43-4.93,1.12-5.81,1.79.63,1.78,1.18,3.23,1.63,4.43,2.19,5.84,2.93,7.8-2.24,10.24-.84.4-1.89.89-3.19,1.62-.34.19-.72.25-1.11.29-.58-.04-1.13.1-1.62.29-2.74,1.11-3.79,4.9-2.35,8.45.86,2.13,2.51,3.78,4.4,4.42.94.32,1.55,1.22,1.5,2.21l-1.01,20.02c-.31,6.19-1.56,10.9-6.13,14.05Z"/>
          </g>
          <path class="cls-1" d="m522.33,1178.32c-.15,0-.3-.02-.45-.05-13.21-2.72-18.7-13.22-18.92-13.66-.55-1.09-.12-2.42.97-2.97,1.09-.56,2.42-.12,2.97.96.05.09,4.81,9.07,15.87,11.35,1.2.25,1.97,1.42,1.72,2.61-.22,1.05-1.14,1.77-2.16,1.77Z"/>
        </g>
        <g>
          <path class="cls-2" d="m482.25,1194.98l10.25-11.22c2.73,3.56,7.45,9.77,16.63,13.55l-.39,16.64c-12.91-4.48-22.01-12.09-26.49-18.97Z"/>
          <path class="cls-1" d="m508.74,1216.16c-.24,0-.49-.04-.72-.12-11.88-4.12-22.2-11.54-27.62-19.85-.55-.84-.46-1.96.22-2.7l10.25-11.22c.44-.48,1.07-.77,1.73-.72.65.03,1.26.34,1.66.86,2.7,3.52,7.14,9.32,15.72,12.85.85.35,1.39,1.18,1.37,2.1l-.39,16.64c-.02.71-.37,1.36-.95,1.76-.38.26-.82.4-1.26.4Zm-23.67-20.99c4.64,6.3,12.45,11.95,21.53,15.61l.28-12.04c-7.23-3.32-11.71-8.08-14.52-11.56l-7.29,7.99Z"/>
        </g>
        <g>
          <path class="cls-2" d="m509.13,1197.3c13.15-1.94,17.32-6.5,18.56-8.9l11.22,10.45c-2.63,4.64-16.63,12.77-30.17,15.1l.39-16.64Z"/>
          <path class="cls-1" d="m508.74,1216.16c-.53,0-1.04-.19-1.45-.54-.5-.43-.78-1.07-.77-1.73l.39-16.64c.02-1.08.82-1.98,1.89-2.14,12.98-1.91,16.23-6.4,16.92-7.73.32-.62.91-1.05,1.59-1.16.68-.12,1.38.09,1.89.56l11.22,10.45c.75.7.92,1.82.42,2.71-3.06,5.39-17.88,13.81-31.72,16.18-.12.02-.25.03-.37.03Zm2.56-16.97l-.28,12.04c10.81-2.44,21.26-8.27,24.92-12.13l-7.92-7.38c-2.37,2.62-7.15,5.77-16.73,7.46Z"/>
        </g>
      </g>
      <g>
        <g>
          <g>
            <g>
              <polygon class="cls-2" points="1467.85 1320.37 1484.81 1397.78 1514.26 1399.32 1498 1315.53 1467.85 1320.37"/>
              <path class="cls-1" d="m1514.26,1401.53s-.08,0-.11,0l-29.44-1.54c-1-.05-1.83-.76-2.05-1.74l-16.97-77.41c-.13-.59-.01-1.22.33-1.72.34-.5.88-.84,1.48-.94l30.16-4.85c1.16-.19,2.3.59,2.52,1.76l16.25,83.79c.13.67-.06,1.36-.5,1.87-.42.48-1.03.76-1.67.76Zm-27.64-5.87l24.93,1.3-15.3-78.91-25.73,4.14,16.11,73.47Z"/>
            </g>
            <g>
              <g>
                <path class="cls-2" d="m1474.55,1391.19c-.86,6.07-2.24,17.33-2.36,27.42-.07,6.34,4.69,11.69,10.97,12.49,17.77,2.28,58.08,4.78,92.41,1.66,2.35-.21,6.51-1.93,7.66-7.8,3.89-19.71-30.4-24.55-67.98-38.85-1.47-.56-3.14-.23-4.27.87l-4.05,3.93c-4.06,3.93-10.07,5.04-15.26,2.83l-12.33-5.26c-2.1-.9-4.47.45-4.79,2.71Z"/>
                <path class="cls-1" d="m1539.81,1436.45c-23.13,0-44.7-1.58-56.92-3.15-7.44-.96-12.99-7.28-12.9-14.71.12-10.29,1.54-21.77,2.38-27.7.25-1.77,1.28-3.28,2.83-4.16,1.55-.88,3.38-.98,5.01-.28l12.33,5.26c4.39,1.88,9.43.94,12.85-2.38l4.06-3.93c1.73-1.68,4.32-2.21,6.6-1.35,8.76,3.33,17.18,6.1,25.33,8.77,26.48,8.69,47.39,15.56,44.04,32.57-1.29,6.54-6,9.24-9.64,9.57-11.69,1.06-24.04,1.48-35.97,1.48Zm-63.06-44.95c-.82,5.83-2.22,17.1-2.34,27.14-.06,5.19,3.83,9.6,9.04,10.27,18.33,2.35,57.94,4.74,91.93,1.65.77-.07,4.64-.69,5.69-6.02,2.6-13.17-15.72-19.19-41.08-27.51-8.19-2.69-16.67-5.47-25.52-8.84-.67-.25-1.44-.1-1.94.39l-4.06,3.93c-4.71,4.56-11.65,5.84-17.67,3.27l-12.33-5.26c-.49-.21-.91-.05-1.11.06-.2.11-.55.39-.63.92Z"/>
              </g>
              <g>
                <path class="cls-2" d="m1472.22,1417.09s-.02,1.02-.03,1.52c-.07,6.34,4.69,11.69,10.97,12.49,17.77,2.28,58.08,4.78,92.41,1.66,2.35-.21,6.51-1.93,7.66-7.8.35-1.8.14-5.04.14-5.04l-2.44.12c-34.69,1.71-69.47.88-104.04-2.49l-4.68-.46Z"/>
                <path class="cls-1" d="m1539.81,1436.45c-23.13,0-44.7-1.58-56.92-3.15-7.44-.96-12.99-7.28-12.9-14.71l.03-1.53c.01-.62.28-1.2.74-1.61.46-.41,1.08-.61,1.69-.55l4.68.46c34.36,3.35,69.26,4.18,103.71,2.48l2.43-.12c1.19-.04,2.24.86,2.32,2.06.02.36.22,3.6-.17,5.62-1.29,6.54-6,9.24-9.64,9.57-11.69,1.06-24.04,1.48-35.97,1.48Zm-65.37-16.92c.37,4.79,4.1,8.75,9.01,9.38,18.33,2.35,57.94,4.74,91.93,1.65.77-.07,4.64-.69,5.69-6.02.12-.59.16-1.46.16-2.29h-.18c-34.69,1.72-69.8.88-104.36-2.49l-2.26-.22Z"/>
              </g>
              <path class="cls-1" d="m1523.88,1409.62c-.57,0-1.13-.22-1.56-.65-.86-.86-.86-2.26,0-3.13l13.19-13.2c.86-.86,2.26-.86,3.13,0,.86.86.86,2.26,0,3.13l-13.19,13.2c-.43.43-1,.65-1.56.65Z"/>
              <path class="cls-1" d="m1536.83,1410.99c-.55,0-1.1-.21-1.53-.62-.88-.85-.91-2.25-.06-3.13l10.54-10.95c.85-.88,2.25-.91,3.13-.06.88.85.91,2.25.06,3.13l-10.54,10.95c-.43.45-1.01.68-1.59.68Z"/>
            </g>
          </g>
          <g>
            <g>
              <polygon class="cls-2" points="1336.72 1344.5 1329.37 1396.15 1313.45 1396.15 1312.56 1345.35 1336.72 1344.5"/>
              <path class="cls-1" d="m1329.37,1398.36h-15.92c-1.21,0-2.19-.97-2.21-2.17l-.89-50.8c-.02-1.21.93-2.21,2.13-2.25l24.16-.85c.65-.07,1.29.24,1.72.73.44.49.64,1.14.55,1.79l-7.35,51.65c-.16,1.09-1.09,1.9-2.19,1.9Zm-13.74-4.42h11.82l6.71-47.14-19.35.68.81,46.46Z"/>
            </g>
            <g>
              <g>
                <path class="cls-2" d="m1308.72,1446.43c-9.45-1.56-14.77-8.34-15.06-14.19-.86-17.38,3.73-33.9,12.33-45.12.94-1.22,2.82-1.12,3.64.18l.23.21c1.48,1.35,3.69,1.26,5.22-.04,1.26-1.07,2.88-1.71,4.61-1.73l2.4-.03c2.7-.04,5.36,1.47,6.77,3.72.66,1.05,2.17,1.1,2.99.18l1.36-1.53c.92-.89,2.47-.26,2.51,1.02l1.47,47.56c-.72,9.31-16.11,11.81-28.48,9.78Z"/>
                <path class="cls-1" d="m1316.96,1449.3c-3.05,0-6.01-.26-8.6-.69-10.66-1.75-16.58-9.51-16.92-16.26-.89-17.85,3.77-34.83,12.79-46.57.88-1.14,2.28-1.8,3.71-1.72,1.34.06,2.57.72,3.37,1.78l.05.04c.69.63,1.68.43,2.3-.09,1.68-1.43,3.81-2.23,6.01-2.26l2.4-.03c3.28,0,6.52,1.65,8.41,4.35l1.1-1.23c1.17-1.13,2.72-1.43,4.07-.88,1.35.55,2.25,1.85,2.3,3.31l1.48,47.55c0,.08,0,.16,0,.24-.23,3-1.72,5.66-4.31,7.68-4.52,3.55-11.53,4.79-18.14,4.79Zm-7.88-5.06c9.34,1.53,18.91.21,23.29-3.22,1.59-1.25,2.45-2.7,2.62-4.44l-1.42-45.59-.06.07c-.86.97-2.15,1.48-3.45,1.38-1.28-.11-2.39-.78-3.07-1.86-1.02-1.63-3-2.6-4.87-2.68l-2.4.03c-1.18.02-2.31.45-3.21,1.21-2.44,2.07-5.86,2.07-8.14,0l-.23-.21c-.14-.13-.27-.28-.38-.45-8.4,10.91-12.73,26.82-11.9,43.64.24,4.86,4.96,10.76,13.21,12.12Z"/>
              </g>
              <g>
                <path class="cls-2" d="m1336.8,1423.93c-.27,1.04-.71,2.04-1.33,2.91-2.13,2.97-7.93,8.78-20.34,7.77-14.7-1.2-21.43-11.43-21.43-11.43-.18,2.98-.19,6.01-.04,9.06.29,5.85,5.62,12.64,15.06,14.19,12.37,2.04,27.76-.47,28.48-9.78l-.39-12.72Z"/>
                <path class="cls-1" d="m1316.96,1449.3c-3.05,0-6.01-.26-8.6-.69-10.66-1.75-16.58-9.51-16.92-16.26-.15-3.1-.14-6.23.05-9.3.06-.95.72-1.76,1.64-2,.91-.25,1.89.13,2.42.92.25.38,6.39,9.36,19.76,10.45,11.07.91,16.25-3.91,18.37-6.85.44-.62.78-1.35.99-2.17.28-1.07,1.32-1.75,2.39-1.65,1.09.12,1.93,1.03,1.97,2.13l.4,12.72c0,.08,0,.16,0,.24-.23,3-1.72,5.66-4.31,7.68-4.52,3.55-11.53,4.79-18.14,4.79Zm-21.19-20.57c0,1.13.04,2.27.1,3.4.24,4.86,4.96,10.76,13.21,12.12,9.35,1.53,18.91.21,23.29-3.22,1.59-1.25,2.45-2.7,2.62-4.44l-.18-5.69c-3.36,3.12-9.56,6.74-19.86,5.91-9.23-.75-15.52-4.81-19.18-8.09Z"/>
              </g>
              <path class="cls-1" d="m1326.67,1412.95h-17.07c-1.22,0-2.21-.99-2.21-2.21s.99-2.21,2.21-2.21h17.07c1.22,0,2.21.99,2.21,2.21s-.99,2.21-2.21,2.21Z"/>
              <path class="cls-1" d="m1328.44,1404.34h-17.07c-1.22,0-2.21-.99-2.21-2.21s.99-2.21,2.21-2.21h17.07c1.22,0,2.21.99,2.21,2.21s-.99,2.21-2.21,2.21Z"/>
            </g>
          </g>
          <g>
            <path class="cls-1" d="m1458.28,990.86s30.97,156.07,31.94,193.73c.97,37.66,22.3,178.98,22.3,178.98,0,0-21.15,10.2-36.54,10.12,0,0-90.83-235.39-96.22-297.27-5.38-61.87,12.62-90.2,12.62-90.2l65.9,4.64Z"/>
            <path class="cls-1" d="m1434.4,992.53s-93.2,274.84-94.55,377.58c0,0-5.68,3.73-31.89-.55,0,0-18.89-303.62,29.55-382.64l96.89,5.61Z"/>
          </g>
        </g>
        <g>
          <g>
            <path class="cls-2" d="m1554.68,733.81l17.37-18.13c2.95-3.08,7.92.39,6.06,4.22l-5.35,11.05s3.65,1.7,5.46,1.81c3.96.25,7.8-1.45,10.54-4.32,3.17-3.32,8.3-8.6,10.04-9.9,2.58-1.93,5.91-4.92,9.59-5.22h.11c3.85-.29,6.36,3.95,4.27,7.2l-7.26,11.24c-5.27,8.16-13.01,14.41-22.08,17.86l-23.48,8.92-1.74,67.01-30.5-23.33,13.7-44.32c2.74-8.85,7.25-17.05,13.27-24.1Z"/>
            <path class="cls-1" d="m1558.22,827.77c-.48,0-.95-.15-1.34-.46l-30.5-23.33c-.74-.56-1.04-1.53-.77-2.41l13.7-44.32c2.84-9.19,7.45-17.56,13.69-24.88.03-.03.06-.06.09-.1l17.37-18.13c2.07-2.16,5.23-2.48,7.69-.77,2.46,1.71,3.27,4.79,1.96,7.49l-4.33,8.94c1.02.38,2.05.71,2.59.74,3.18.2,6.39-1.12,8.8-3.64,3.71-3.88,8.51-8.79,10.31-10.14.35-.26.72-.54,1.09-.84,2.59-2.01,5.82-4.5,9.65-4.81,2.77-.18,5.22,1.09,6.56,3.35,1.34,2.26,1.29,5.05-.14,7.26l-7.26,11.24c-5.56,8.61-13.57,15.09-23.15,18.72l-22.1,8.39-1.7,65.53c-.02.83-.51,1.58-1.26,1.94-.3.14-.63.22-.95.22Zm-27.93-26.36l25.83,19.76,1.63-62.68c.02-.9.59-1.69,1.43-2.01l23.48-8.92c8.69-3.3,15.96-9.18,21.01-16.99l7.26-11.24c.52-.8.54-1.78.05-2.6-.49-.82-1.36-1.28-2.3-1.2-2.61.21-5.15,2.18-7.39,3.91-.4.31-.78.6-1.15.88-1.18.88-4.83,4.5-9.77,9.66-3.31,3.46-7.76,5.28-12.28,5-2.11-.13-5.58-1.7-6.25-2.01-.54-.25-.95-.71-1.15-1.26-.2-.56-.17-1.17.09-1.71l5.35-11.05c.53-1.09-.25-1.75-.5-1.93-.32-.22-1.16-.65-1.97.2l-17.33,18.08c-5.84,6.85-10.14,14.68-12.79,23.27l-13.24,42.85Z"/>
          </g>
          <g>
            <path class="cls-2" d="m1529.24,775.05l-21.32,46.04c-3.5,5.74-11.38,6.88-16.38,2.37-11.95-10.77-32.72-39.29-51.38-46.52-25.81-9.99-77.95-9.09-98.35-2.72-20.46,6.39-34.62,11.86-58.71,28.11-1.95,1.17-53,32.34-60.18,72.41-10.11,56.45,65.03,101.69,65.03,101.69l22.27-29.71-17.32-38.59s-8.49-18.78,11.96-34.94c0,0,9.29-7.98,14.28-3.21.68.65,1.13,1.47,1.42,2.36,1.33,7.25,1.83,14.75,1.13,22.33-3.84,42.03-16.15,106.88-17.39,121.95-.14,1.74,1.21,3.23,2.96,3.26l170,2.88c1.27.02,2.28-1.05,2.17-2.3-1.17-13.26-15.3-114.28-15.23-123.21,13.71,7.37,34.2,29.74,62.1,26.74,31.24-3.36,41.84-144.44,41.84-144.44l-38.89-4.49Z"/>
            <path class="cls-1" d="m1477.3,1024.97h-.08l-170-2.87c-1.44-.03-2.83-.65-3.79-1.72-.96-1.06-1.45-2.5-1.33-3.93.49-5.97,2.64-19.32,5.36-36.23,4.09-25.4,9.69-60.19,12.03-85.74.63-6.89.27-14.15-1.08-21.58-.19-.55-.46-.99-.8-1.31-3.39-3.24-11.23,3.22-11.31,3.29-18.85,14.89-11.71,31.65-11.39,32.36l17.32,38.59c.33.73.24,1.59-.25,2.23l-22.27,29.71c-.68.91-1.93,1.16-2.91.57-3.12-1.88-76.33-46.68-66.07-103.97,7.34-40.98,59.02-72.58,61.22-73.91,23.25-15.68,37.06-21.42,59.19-28.32,20.25-6.33,73.02-7.59,99.81,2.77,13.6,5.26,27.97,21.09,39.51,33.81,4.87,5.37,9.08,10,12.55,13.13,1.89,1.71,4.43,2.47,6.96,2.11,2.48-.36,4.66-1.78,5.99-3.89l21.26-45.92c.4-.87,1.32-1.39,2.26-1.27l38.89,4.49c1.18.14,2.04,1.18,1.95,2.36-1.1,14.63-11.66,143.02-43.81,146.47-21.82,2.35-39.37-10.29-52.17-19.51-2.8-2.01-5.34-3.85-7.68-5.36,1.11,11.9,5.41,44.57,8.95,71.57,2.96,22.52,5.52,41.98,6,47.39.11,1.22-.31,2.43-1.15,3.33-.82.88-1.98,1.38-3.18,1.38Zm-162.1-158.72c1.98,0,3.87.6,5.47,2.13.91.86,1.58,1.97,2,3.29.03.09.05.18.07.27,1.44,7.88,1.83,15.6,1.16,22.93-2.35,25.71-7.74,59.16-12.07,86.04-2.71,16.81-4.84,30.09-5.32,35.89-.03.3.12.51.2.6.09.1.28.26.59.27l170,2.87c-.54-5.22-3.1-24.62-6.05-47.1-4.36-33.16-9.31-70.75-9.26-76.22,0-.78.42-1.49,1.08-1.89.67-.39,1.49-.41,2.18-.05,3.53,1.89,7.32,4.62,11.7,7.78,12.91,9.3,28.99,20.87,49.11,18.7,23.7-2.55,36.5-100.12,39.71-140.29l-35.19-4.06-20.65,44.59c-.03.08-.07.15-.12.22-2.01,3.3-5.36,5.51-9.19,6.06-3.85.56-7.68-.61-10.56-3.2-3.63-3.28-7.91-7.99-12.86-13.44-11.23-12.37-25.21-27.77-37.84-32.65-25.54-9.88-77.68-8.67-96.9-2.68-21.7,6.78-35.24,12.4-58.13,27.83-2.22,1.34-52.26,31.99-59.24,70.96-8.9,49.66,51.35,91.23,62.31,98.33l20.26-27.03-16.79-37.4c-.09-.2-8.95-20.54,12.61-37.58,2.71-2.33,7.39-5.2,11.71-5.2Zm192.72-45.16h.02-.02Z"/>
          </g>
        </g>
        <g>
          <g>
            <g>
              <path class="cls-2" d="m1373.86,771.08l1.01-53.01,33.91,11.86.1,40.66c-.15,6.53-5.64,10.26-5.64,10.26-6.79,5.15-16.43,4.38-23.51-.38l-1.64-1.1c-2.74-1.84-4.34-4.97-4.24-8.27Z"/>
              <path class="cls-1" d="m1392.28,786.63c-4.65,0-9.49-1.44-13.79-4.33l-1.64-1.1c-3.39-2.28-5.34-6.08-5.21-10.17l1.01-53c.01-.71.37-1.37.95-1.77.58-.41,1.32-.51,1.99-.27l33.91,11.86c.89.31,1.48,1.15,1.48,2.08l.1,40.66c-.17,7.64-6.35,11.92-6.61,12.1-3.47,2.64-7.75,3.96-12.2,3.96Zm-15.25-65.46l-.95,49.96s0,.02,0,.03c-.08,2.56,1.14,4.94,3.26,6.37l1.64,1.1c6.72,4.53,15.33,4.71,20.94.46.13-.09,4.64-3.28,4.76-8.55l-.09-39.04-29.55-10.33Zm-3.17,49.92h.02-.02Z"/>
            </g>
            <path class="cls-1" d="m1403.42,664.7c-12.35-6.13-8.45,10.15-11.65,8.57-11.84-5.85-15.1-7.32-21.47-6.83-4.22.32-14.17,6.7-13.8,12.35,1.22,18.44,9.94,15.2,12.56,31.56,1.84,11.49,4.31,15.34,8.39,17.7,4.13,2.39,8.43-2.89,13.14-.62,6.09,2.95,2.86,13.73,8.28,19.43,3.42,3.59,12.33,6.59,28.25,2.16,2.58-.72,4.28-3.18,4.03-5.85-.32-3.42-.75-7.74-1.51-11.83-3.6-19.5-9.41-24.82-6.2-29.12,4.92-6.59,10.99-22.13-20.02-37.54Z"/>
            <g>
              <path class="cls-2" d="m1397.22,697.02l1.69,5.15c.8,2.43,1.43,4.9,1.88,7.41.86,4.71,2.64,12.73,3.59,17.26,3.06,14.55,22.49,2.69,22.49,2.69l1.83-3.52,2.42-.5c.47-.1.92-.29,1.27-.61.89-.79,1.11-2.02.66-3.04-2.49-5.56-7.55-17.94-8.3-28.37,0,0-13.75-6.3-27.54,3.53Z"/>
              <path class="cls-1" d="m1413.05,736.3c-1.68,0-3.32-.27-4.84-.92-3.13-1.35-5.14-4.07-5.98-8.09l-.94-4.38c-.91-4.23-2.04-9.49-2.67-12.93-.44-2.4-1.05-4.79-1.81-7.11l-1.69-5.15c-.3-.92.03-1.93.82-2.49,14.67-10.46,29.14-4.02,29.75-3.74.73.34,1.22,1.05,1.28,1.85.74,10.25,5.92,22.73,8.11,27.62.87,1.93.38,4.18-1.2,5.6-.62.55-1.41.94-2.3,1.13l-1.39.29-1.35,2.59c-.19.36-.47.66-.81.87-.99.6-8.24,4.88-14.98,4.88Zm-13.2-38.38l1.17,3.56c.83,2.51,1.49,5.11,1.96,7.71.61,3.37,1.73,8.6,2.64,12.79l.94,4.41c.54,2.56,1.65,4.18,3.41,4.94,4.4,1.9,12.04-1.55,15.25-3.37l1.54-2.96c.31-.59.86-1.01,1.51-1.14l2.42-.51c.16-.03.24-.08.25-.09.18-.16.17-.35.11-.49-2.72-6.06-7.3-17.49-8.36-27.71-3.26-1.12-12.84-3.48-22.84,2.87Z"/>
            </g>
            <path class="cls-2" d="m1397.88,714.04s-4.06-12.38-9.3-9.37c-5.24,3.02-.43,16.54,9.3,9.37Z"/>
          </g>
          <g>
            <g>
              <polygon class="cls-2" points="1427.34 692.8 1422.79 639.91 1349.99 676.91 1367.99 707.28 1427.34 692.8"/>
              <path class="cls-1" d="m1367.99,709.49c-.77,0-1.5-.4-1.9-1.08l-17.99-30.37c-.31-.53-.39-1.16-.22-1.75.17-.59.58-1.08,1.12-1.35l72.8-37c.66-.33,1.43-.32,2.08.04.64.36,1.07,1.01,1.13,1.74l4.55,52.88c.1,1.09-.62,2.08-1.68,2.34l-59.36,14.48c-.18.04-.35.06-.52.06Zm-14.89-31.68l15.95,26.93,55.92-13.64-4.11-47.73-67.77,34.44Z"/>
            </g>
            <g>
              <path class="cls-2" d="m1362.6,664.65s-32.04,8.31-28.01,23.5c4.04,15.19,28,22.41,38.31,8.99,19.29-25.12,43.31-27.4,54-38.08,17.56-17.52-16.28-52.2-33.32-19.44,0,0-31.1-4.81-30.98,25.03Z"/>
              <path class="cls-1" d="m1357.74,706.42c-1.73,0-3.51-.18-5.31-.54-9.89-1.98-17.73-8.72-19.97-17.16-.88-3.31-.4-6.56,1.41-9.66,5.35-9.16,21.34-14.54,26.55-16.09.29-8.38,3.06-14.88,8.24-19.34,8.08-6.95,19.53-6.72,23.7-6.37,6.9-12.23,15.62-13.66,20.25-13.38,8.41.49,16.62,6.99,19.96,15.8,2.95,7.77,1.46,15.4-4.1,20.95-4.23,4.23-10.19,7.11-17.1,10.44-11.1,5.36-24.91,12.04-36.72,27.42-3.94,5.14-10.04,7.93-16.92,7.93Zm31.24-64.86c-4.64,0-12.11.82-17.46,5.44-4.49,3.87-6.74,9.81-6.71,17.64,0,1.01-.68,1.89-1.66,2.15-.2.05-20.11,5.32-25.47,14.5-1.21,2.08-1.52,4.13-.95,6.29,1.79,6.73,8.44,12.34,16.56,13.96,7.29,1.46,13.97-.69,17.85-5.75,12.45-16.21,26.78-23.14,38.3-28.71,6.54-3.16,12.19-5.89,15.9-9.59,4.26-4.26,5.39-10.18,3.09-16.24-2.7-7.12-9.47-12.57-16.09-12.96-6.59-.38-12.4,3.89-16.8,12.35-.44.84-1.35,1.3-2.3,1.16-.05,0-1.74-.25-4.27-.25Z"/>
            </g>
          </g>
        </g>
        <g>
          <g>
            <path class="cls-2" d="m1395.6,978.79c-19.59-6.28-58.38-10.42-84.18-4.43l-7.08,24.72c32.54-9.53,66.14-4.87,89.55-.21l1.71-20.08Z"/>
            <path class="cls-1" d="m1304.34,1001.3c-.58,0-1.14-.22-1.56-.64-.57-.57-.79-1.4-.57-2.18l7.08-24.72c.22-.77.84-1.36,1.62-1.54,25.58-5.94,64.22-2.3,85.36,4.48.98.32,1.62,1.27,1.53,2.29l-1.71,20.08c-.05.63-.37,1.2-.88,1.58-.5.38-1.15.53-1.76.4-22.47-4.47-56.09-9.32-88.49.16-.21.06-.41.09-.62.09Zm41.41-9.97c17.29,0,33.32,2.43,46.15,4.9l1.35-15.85c-18.29-5.42-54.66-9.63-80.06-4.15l-5.63,19.67c12.89-3.34,25.86-4.58,38.19-4.58Z"/>
          </g>
          <g>
            <path class="cls-2" d="m1364.79,766.46c30.27,5.05,34.11,53.33,36.04,61.28.79,3.26,3.88,5.51,7.55,5.53l23.37.12c5.51.03,12.85-4.92,12.58-9.96-1.55-28.76-19.68-46.09-31.15-52.47l12.64.21c8.62.15,16.46,5,20.41,12.67.29.55.57,1.12.87,1.7,15.04,29.31,33.26,81.16,39.31,153.37,0,0,12.7,133.44-5.5,219.54-3.26,15.41-15.26,27.46-30.69,30.54-32.75,6.54-79.07,18.75-121.13,2.24-60.96-23.93,16.39-119.1,37.37-214.34,11.51-52.25,23.72-137.28,14.57-166.53-16.41-52.46-54.07-31.17-54.07-31.17,0,0,23.13-15.19,37.83-12.73Z"/>
            <path class="cls-1" d="m1376.48,1201.67c-16.05,0-32.46-2.2-48.2-8.38-10.64-4.17-17.61-10.5-21.32-19.32-9.81-23.33,5.79-60.2,23.87-102.9,12.34-29.16,26.33-62.21,33.48-94.65,10.6-48.13,23.94-135.58,14.62-165.4-5.31-16.96-13.36-27.7-23.95-31.9-13.5-5.37-26.8,1.92-26.93,2-1.04.59-2.35.24-2.97-.78-.62-1.02-.32-2.34.67-3,.97-.64,24.01-15.66,39.41-13.07,28.02,4.68,34.54,43.69,36.99,58.37.34,2.04.61,3.66.83,4.57.55,2.24,2.77,3.82,5.41,3.84l23.37.12h.04c2.79,0,6.38-1.65,8.55-3.93,1.2-1.26,1.83-2.58,1.77-3.7-1.4-25.84-17.04-43.44-30.02-50.65-.89-.49-1.32-1.53-1.06-2.51.26-.98,1.16-1.57,2.17-1.64l12.64.21c9.46.16,18.02,5.47,22.34,13.87l.88,1.71c11.88,23.14,32.82,73.95,39.54,154.19.13,1.31,12.52,134.74-5.53,220.19-3.45,16.35-16.18,29.01-32.43,32.25-3.04.61-6.19,1.26-9.45,1.94-18.59,3.86-41.26,8.57-64.72,8.57Zm-32.19-428.98c3.84,0,8.02.61,12.26,2.29,11.91,4.71,20.85,16.39,26.58,34.71,9.58,30.63-3.82,119.1-14.52,167.67-7.23,32.84-21.31,66.09-33.72,95.42-17.68,41.78-32.95,77.85-23.86,99.46,3.23,7.67,9.4,13.2,18.86,16.92,37.54,14.74,77.94,6.34,110.41-.41,3.27-.68,6.43-1.34,9.48-1.94,14.51-2.9,25.88-14.21,28.96-28.83,17.92-84.78,5.58-217.55,5.46-218.88-6.67-79.5-27.34-129.71-39.08-152.57l-.87-1.7c-3.57-6.94-10.66-11.33-18.48-11.47l-5.06-.09c12.24,9.4,24.56,26.55,25.83,50.01.13,2.39-.91,4.8-2.99,6.99-3.04,3.19-7.85,5.4-11.82,5.3l-23.36-.12c-4.68-.02-8.66-2.99-9.69-7.22-.26-1.08-.54-2.76-.9-4.89-2.31-13.83-8.45-50.57-33.36-54.73-5.99-1-13.65,1.22-20.38,4.06h.25Z"/>
          </g>
        </g>
        <g>
          <path class="cls-2" d="m1305.28,953.3l10.03,7.94c2.28,2.29,5.99,2.31,8.28.03l8.88-8.39c2.15-2.12,6.24-4.31,9.26-4.33l9.58.81c9.74.78,13.22,8.98,13.22,8.98,1.65,3.2.62,7.33-2.61,9.94,0,0-4.07,3.32-7.73,3.95l-6.29,1.08s-6.65,2.19-11.5,5.63c-4.85,3.44-12.12,6.81-20.7,6.27l-.67-.04c-5.13-.32-10.01-2.31-13.91-5.66l-9.98-7.34,14.14-18.86Z"/>
          <path class="cls-1" d="m1317.5,987.48c-.63,0-1.27-.02-1.92-.06l-.67-.04c-5.58-.35-10.98-2.55-15.22-6.2l-9.85-7.24c-.48-.35-.79-.88-.88-1.46s.06-1.18.42-1.65l14.14-18.86c.36-.48.89-.79,1.48-.87.59-.09,1.19.09,1.66.46l10.03,7.94c.07.05.13.11.2.18,1.42,1.42,3.73,1.43,5.16.02l8.92-8.43c2.38-2.36,6.99-4.91,10.77-4.93l9.79.82c10.94.87,14.9,9.93,15.06,10.32,2.09,4.05.78,9.26-3.25,12.53-.46.37-4.63,3.71-8.75,4.41l-6.12,1.05c-.98.33-6.64,2.35-10.77,5.28-3.65,2.59-10.94,6.73-20.19,6.73Zm-23.24-15.78l8.19,6.02c3.64,3.13,8.11,4.95,12.73,5.24l.67.04c8.81.55,15.86-3.44,19.28-5.87,5.06-3.59,11.81-5.83,12.09-5.93.1-.03.21-.06.32-.08l6.29-1.08c2.52-.43,5.7-2.67,6.71-3.49,2.4-1.94,3.23-4.9,2.04-7.21-.19-.42-3.21-7.13-11.42-7.78l-9.6-.82c-2.17.02-5.77,1.97-7.52,3.7l-8.92,8.43c-3.09,3.05-8.13,3.07-11.27.02l-8.16-6.45-11.43,15.26Z"/>
        </g>
      </g>
      <g>
        <g>
          <g>
            <g>
              <polygon class="cls-2" points="741.37 1617.94 724.41 1663.73 748.46 1671.11 766.6 1628.52 741.37 1617.94"/>
              <path class="cls-1" d="m748.46,1673.33c-.21,0-.43-.03-.65-.1l-24.05-7.38c-.58-.18-1.06-.59-1.33-1.13-.27-.55-.3-1.18-.09-1.75l16.96-45.79c.21-.56.64-1.02,1.19-1.26.55-.24,1.18-.24,1.74-.01l25.23,10.59c.54.23.97.66,1.19,1.21.22.55.22,1.16-.02,1.7l-18.14,42.59c-.36.83-1.17,1.35-2.04,1.35Zm-21.16-11.02l19.91,6.11,16.49-38.71-21.05-8.83-15.35,41.43Z"/>
            </g>
            <g>
              <path class="cls-2" d="m753,1661.35c-8.62,1.76-17.44-1.99-22.14-9.44l-2.47-3.92c-.86-1.36-2.75-1.56-3.88-.42l-21.99,22.38c-3.87,3.61-4.58,10.05-1.5,14.38,4.02,5.64,10.3,13.42,18.38,20.21,15.24,12.8,26.17,36.13,44.49,34.32,18.33-1.8,17.57-2.8,20.54-7.95s-3.3-17.97-14.85-33.16c-7.06-9.28-12.24-27.5-13.66-34.48-.27-1.35-1.59-2.21-2.94-1.93Z"/>
              <path class="cls-1" d="m761.91,1741.19c-12.54,0-21.75-10.69-30.67-21.05-4.22-4.9-8.58-9.97-13.26-13.89-8.37-7.03-14.82-15.09-18.76-20.62-3.68-5.17-2.88-12.92,1.79-17.28l21.92-22.31c1.01-1.03,2.42-1.54,3.85-1.38,1.44.15,2.7.94,3.47,2.16l2.47,3.92c4.18,6.63,12.15,10.02,19.82,8.45h0c2.54-.52,5.03,1.13,5.54,3.66,1.47,7.2,6.63,24.88,13.26,33.59,9.22,12.13,19.31,28.15,15,35.61l-.57,1c-3.01,5.38-4.73,6.37-21.67,8.04-.75.07-1.49.11-2.21.11Zm-35.62-92.14c-.07,0-.14.03-.19.08l-21.99,22.38c-3.18,2.97-3.72,8.12-1.27,11.55,3.79,5.31,9.99,13.06,18,19.8,4.95,4.15,9.43,9.36,13.76,14.39,9.1,10.56,17.69,20.53,29.09,19.42,15.88-1.57,16.29-2.29,18.25-5.8l.6-1.06c1.73-2.99-1.08-12.82-14.69-30.71-7.65-10.06-12.85-29.4-14.07-35.38-.03-.13-.2-.23-.33-.21-9.46,1.94-19.29-2.25-24.45-10.42l-2.47-3.92c-.05-.08-.12-.12-.2-.13-.01,0-.02,0-.03,0Z"/>
            </g>
            <path class="cls-1" d="m743.85,1689.73c-1.04,0-1.96-.73-2.17-1.79-.23-1.2.55-2.36,1.75-2.59l17.37-3.39c1.2-.24,2.36.55,2.59,1.75.23,1.2-.55,2.36-1.75,2.59l-17.37,3.39c-.14.03-.29.04-.43.04Z"/>
            <path class="cls-1" d="m748.2,1700.79c-1.04,0-1.96-.73-2.17-1.78-.24-1.2.54-2.36,1.74-2.6l18.41-3.63c1.2-.24,2.36.54,2.6,1.74.24,1.2-.54,2.36-1.74,2.6l-18.41,3.63c-.14.03-.29.04-.43.04Z"/>
            <g>
              <path class="cls-2" d="m783.67,1732.12s-11.26,10.7-28.54-3.57c-11.52-9.5-52.47-58.94-52.47-58.94l-5.13,4.84c-2.6,2.45-2.88,6.52-.65,9.33,10.08,12.71,37.34,45.74,55,54.39,22.01,10.78,31.79-6.06,31.79-6.06Z"/>
              <path class="cls-1" d="m765.72,1743.99c-4.23,0-9.15-1.05-14.81-3.82-17.92-8.78-44.97-41.39-55.76-55.01-2.92-3.69-2.54-9.1.87-12.32l5.13-4.84c.44-.42,1.04-.62,1.65-.6.61.04,1.18.33,1.57.8.41.49,40.94,49.38,52.17,58.64,15.59,12.87,25.52,3.76,25.61,3.67.8-.76,2.03-.81,2.9-.13.86.68,1.09,1.9.54,2.85-.08.14-6.45,10.76-19.87,10.76Zm-63.25-71.15l-3.42,3.23c-1.75,1.65-1.95,4.44-.44,6.35,8.28,10.44,36.65,45.17,54.24,53.78,9.05,4.43,15.77,3.9,20.44,1.93-5.21.2-11.9-1.53-19.57-7.87-10.42-8.6-43.65-48.28-51.25-57.42Z"/>
            </g>
          </g>
          <g>
            <g>
              <polygon class="cls-2" points="872.08 1634.74 857.01 1700.58 883.91 1715.48 902.58 1643.94 872.08 1634.74"/>
              <path class="cls-1" d="m883.91,1717.69c-.37,0-.74-.09-1.07-.28l-26.9-14.89c-.86-.48-1.3-1.47-1.08-2.43l15.07-65.84c.14-.6.51-1.11,1.04-1.42.53-.31,1.16-.39,1.75-.21l30.5,9.2c1.14.34,1.8,1.53,1.5,2.68l-18.67,71.54c-.17.66-.64,1.21-1.27,1.47-.28.12-.58.18-.87.18Zm-24.37-18.23l22.95,12.71,17.41-66.72-26.19-7.9-14.17,61.91Z"/>
            </g>
            <g>
              <path class="cls-2" d="m853.12,1697.43c-.85,6.37-2.21,18.19-2.25,28.78-.03,6.65,4.97,12.22,11.53,13.02,18.55,2.26,60.59,4.58,96.37,1.06,2.45-.24,6.77-2.07,7.93-8.24,3.91-20.71-31.88-25.52-71.17-40.25-1.54-.58-3.27-.22-4.45.94l-4.2,4.15c-4.2,4.15-10.46,5.37-15.89,3.08l-12.89-5.43c-2.2-.92-4.66.5-4.98,2.88Z"/>
              <path class="cls-1" d="m917.72,1744.33c-22.67,0-43.51-1.42-55.59-2.9-7.71-.94-13.51-7.49-13.48-15.23.05-10.78,1.44-22.84,2.27-29.07.24-1.83,1.3-3.4,2.89-4.31,1.58-.91,3.46-1.02,5.14-.32l12.9,5.43c4.62,1.95,9.91.92,13.48-2.61l4.2-4.15c1.77-1.75,4.43-2.32,6.78-1.44,9.16,3.43,17.96,6.27,26.48,9.02,27.63,8.91,49.45,15.94,46.1,33.72-1.28,6.81-6.13,9.66-9.89,10.03-13.41,1.32-27.67,1.83-41.26,1.83Zm-61.02-47.85c-.3,0-.54.11-.69.19-.39.22-.64.6-.7,1.05-.82,6.12-2.19,17.97-2.23,28.5-.02,5.5,4.1,10.15,9.59,10.82,19.13,2.33,60.46,4.54,95.88,1.05.81-.08,4.91-.77,5.98-6.45,2.63-13.94-16.55-20.12-43.1-28.68-8.56-2.76-17.42-5.61-26.67-9.08-.73-.28-1.56-.1-2.11.45l-4.2,4.15c-4.85,4.8-12.04,6.18-18.31,3.55l-12.89-5.43c-.19-.08-.37-.11-.53-.11Zm-3.58.95h.02-.02Z"/>
            </g>
            <g>
              <path class="cls-2" d="m850.88,1724.63s-.01,1.07-.02,1.59c-.03,6.65,4.97,12.22,11.53,13.02,18.55,2.26,60.59,4.58,96.37,1.06,2.45-.24,6.77-2.07,7.93-8.24.36-1.89.11-5.29.11-5.29l-2.54.14c-36.16,2.05-72.42,1.44-108.5-1.84l-4.89-.44Z"/>
              <path class="cls-1" d="m917.72,1744.33c-22.67,0-43.51-1.42-55.59-2.9-7.71-.94-13.51-7.49-13.48-15.23l.02-1.61c0-.62.27-1.2.73-1.62.46-.41,1.08-.62,1.68-.56l4.88.45c35.85,3.26,72.24,3.88,108.17,1.84l2.54-.14c1.24-.02,2.24.84,2.33,2.04.03.38.26,3.75-.14,5.87-1.28,6.81-6.13,9.66-9.89,10.03-13.41,1.32-27.67,1.83-41.26,1.83Zm-64.61-17.28c.37,5.13,4.35,9.36,9.56,10,19.13,2.33,60.46,4.54,95.88,1.05.81-.08,4.91-.77,5.98-6.45.13-.66.16-1.63.15-2.55l-.29.02c-36.15,2.05-72.76,1.43-108.82-1.85l-2.46-.22Z"/>
            </g>
            <path class="cls-1" d="m904.67,1716.3c-.56,0-1.12-.21-1.55-.63-.87-.86-.89-2.26-.03-3.13l13.65-13.94c.86-.87,2.26-.89,3.13-.03.87.86.89,2.26.03,3.13l-13.65,13.94c-.43.44-1.01.67-1.58.67Z"/>
            <path class="cls-1" d="m918.19,1717.64c-.54,0-1.09-.2-1.52-.6-.89-.84-.93-2.24-.09-3.13l10.91-11.57c.84-.89,2.24-.93,3.13-.09.89.84.93,2.24.09,3.13l-10.91,11.57c-.44.46-1.02.7-1.61.7Z"/>
          </g>
          <g>
            <path class="cls-1" d="m883.25,1250.6c.51,3.72-15.76,37.02-18.97,67.22-4.37,41.15,8.16,80.19-13.98,117.92-20.94,35.67-58.01,39.1-114.26,186.96-3.74,9.84,10.64,18.57,10.64,18.57l12.63,4.54c4.89.43,9.59-1.96,12.13-6.15,15.03-24.74,86.17-93.07,104.13-120.42,21.09-32.12,80.32-112,86.44-151.97,5.76-37.68,7.19-92.06,7.34-98.17,0-.33-.23-.59-.55-.64l-85.55-17.86Z"/>
            <path class="cls-1" d="m994.35,1270.56s29.09,96.21-12.47,210.7c-30.06,82.8-70.37,166.35-82.73,192.34-2.42,5.09-7.81,8.06-13.4,7.4l-14.5-1.36c-7.81-.93-10.7-11.24-11.21-16.13-2.47-23.27,1.48-54.42,9.81-91.51,4.76-21.2,16.32-43.73,20.34-63.36,5.51-26.89,9.65-49.73,10.57-61.48,4.56-58.22-7.37-83.8-5.68-124.94,1.85-44.82,14.45-66.65,14.45-66.65l84.82,15Z"/>
            <path class="cls-2" d="m873.54,1528.44c-.41,0-.82-.11-1.19-.35-1.03-.66-1.33-2.02-.67-3.05.08-.12,8.07-12.63,19.14-28.51l1.02-1.46c19.62-28.12,56.13-80.47,67.6-132.76.26-1.19,1.44-1.94,2.63-1.69,1.19.26,1.95,1.44,1.69,2.63-11.66,53.15-48.5,105.97-68.29,134.35l-1.02,1.46c-11.02,15.8-18.96,28.24-19.04,28.36-.42.66-1.14,1.02-1.87,1.02Z"/>
          </g>
        </g>
        <path class="cls-1" d="m991.58,1016.14c1.96-4.24,3.24-8.77,3.5-13.43.54-9.78-1.92-24.32-17.89-35.12-26.54-17.96-55.92,12.53-67.46,16-14.67,4.41-40.52-7.08-50.23-5.49-8.97,1.47-43.24,1.8-50.37,44.56-.79,4.72-1.01,9.51-1,14.29,0,6.06-1.52,22.29-21.98,36.73-27.35,19.3-53.59,76.05-12.12,107.1,9.92,7.43,23.39,6.08,34.22,2.63,1.96-.63,4.04-1.39,6.19-2.33,6.24-2.71,13.09-11.07,20.59-9.75,21.98,3.87,91.97,36.6,86.26-42.5-1.61-22.23-1.23-37.02,18.44-41.64,7.58-1.78,20.88,3.94,35.6.4,31.27-7.51,23.36-42.35,17.27-53.89-4.49-8.52-2.74-13.86-1.02-17.58Z"/>
        <g>
          <path class="cls-2" d="m936.61,1008.88c5.19,2.04,7.79,1.44,14.16-1.91,12.42-6.51,17.42-20.5,20.98-14.25,3.11,5.45,1.94,9.35,9.89,15.63.76.6.46,1.87-.18,2.59l-3.36,4.2c-.72.81-1.02,3.12-.91,4.2.34,3.35,1.11,10.26.36,11.55-2.16,3.75-14.1,5.68-14.1,5.68l-1.37,24.82c-.19,3.49,1.01,6.92,3.35,9.52l2.59,2.88s-.17,6.91-21.26,8.09c-4.98.28-10.7-1.19-14.27-2.33-1.57-.5-2.14-2.39-1.16-3.71,3.53-4.76,11.94-17.13,9.52-45.94-.07-.87-.62-1.64-1.41-2.02-3.04-1.44-11.33-5.81-11.27-11.94.07-6.52,4.65-8.56,8.43-7.08Z"/>
          <path class="cls-1" d="m945.49,1084.13c-4.84,0-10.03-1.31-13.67-2.47-1.42-.45-2.5-1.52-2.96-2.94-.46-1.42-.2-2.99.69-4.19,2.85-3.84,11.52-15.52,9.09-44.43,0-.08-.07-.16-.15-.21-4.71-2.23-12.6-7-12.53-13.96.04-3.76,1.42-6.75,3.88-8.41,2.16-1.45,4.99-1.72,7.57-.7,4.31,1.7,6.16,1.43,12.32-1.81,5.32-2.79,9.2-7.05,12.32-10.47,3.11-3.42,5.34-5.91,8.08-5.58,1.42.16,2.61,1.05,3.53,2.66,1.06,1.86,1.65,3.5,2.22,5.09,1.15,3.2,2.14,5.96,7.12,9.89.74.58,1.19,1.44,1.28,2.41.1,1.18-.34,2.45-1.18,3.39l-3.29,4.11c-.27.42-.51,1.89-.44,2.6l.07.7c.82,8.03.82,10.76,0,12.18-2.13,3.69-9.8,5.64-13.91,6.44l-1.27,23.07c-.16,2.89.86,5.77,2.79,7.92l2.59,2.88c.38.42.58.97.57,1.53-.04,1.49-1.33,9.01-23.35,10.25-.46.03-.92.04-1.39.04Zm-11.27-73.5c-.69,0-1.35.19-1.91.57-1.22.82-1.9,2.52-1.93,4.78-.05,4.8,7.64,8.8,10,9.92,1.51.72,2.53,2.18,2.67,3.83,2.57,30.58-6.85,43.27-9.95,47.44,0,0,.05.28.05.28,2.98.95,8.68,2.48,13.48,2.23,12.87-.72,17.61-3.69,18.84-5.4l-1.7-1.89c-2.71-3.01-4.14-7.07-3.92-11.12l1.37-24.82c.06-1.04.83-1.9,1.85-2.06,5.27-.86,11.56-2.91,12.54-4.6.29-1.09-.36-7.43-.58-9.52l-.07-.71c-.12-1.2.08-4.35,1.46-5.9l3.24-4.05c-5.49-4.49-6.74-8.01-7.96-11.4-.53-1.48-1.03-2.87-1.9-4.39-.1-.18-.19-.31-.26-.39-.9.43-2.81,2.53-4.24,4.1-3.18,3.49-7.53,8.26-13.53,11.41-6.78,3.56-10.05,4.34-16,2-.53-.21-1.06-.31-1.57-.31Z"/>
        </g>
        <g>
          <g>
            <path class="cls-2" d="m889.49,1185.41c-2.69-28.73-7.92-20.4-11.07-42.17-4.09-28.33-7.12-47.22,18.8-64.5,15.62-10.42,24.52-12.83,40.85-9.92,5.55,5.95,27.76,4.76,27.76,4.76,0,0,34.9,24.61,58.7,28.58,24.62,4.11,32.83-40.35,44.42-61.91,4.8,4.45,12.48,4.92,17.85,8.73-4.36,18.82-.19,93.67-53.14,102-3.62.57-13.88.4-23.4-2.78-.65,2.74,1.5,11.15.39,13.74l-1.09,2.53c-3.09,7.18-4.59,14.93-4.37,22.75,1.35,49.68,4.19,108.73,4.92,123.38.08,1.59-1.53,2.72-3,2.11l-47.38-19.6c-18.11-7.33-18.38-34.87-37.74-32.21-20.01,2.76-45.23-5.7-44.25-7.12,12.33-17.92,15.99-23.37,11.77-68.35Z"/>
            <path class="cls-1" d="m1007.93,1315.07c-.57,0-1.14-.11-1.69-.34l-47.37-19.6c-8.72-3.53-13.59-11.34-17.88-18.24-5.25-8.44-9.38-15.09-18.71-13.82-18.81,2.6-44.32-4.53-46.42-7.93-.52-.84-.5-1.85.04-2.64,11.94-17.36,15.54-22.6,11.39-66.89-1.45-15.44-3.55-19.7-5.78-24.21-1.88-3.8-3.82-7.74-5.28-17.85l-.13-.86c-4.02-27.81-6.93-47.91,19.88-65.8,16.36-10.91,25.88-13.21,42.46-10.26.47.08.9.32,1.23.67,3.48,3.73,17.46,4.47,26.01,4.06.32-.02.66.04.95.15.16.06.31.15.45.25.34.24,34.77,24.36,57.79,28.2,16.49,2.75,25.45-20.22,33.35-40.49,2.93-7.51,5.7-14.61,8.75-20.29.32-.6.91-1.02,1.59-1.13.68-.11,1.37.1,1.87.56,2.29,2.12,5.46,3.26,8.83,4.46,3,1.07,6.11,2.18,8.8,4.09.73.52,1.08,1.43.87,2.3-.75,3.25-1.27,8.53-1.86,14.64-2.79,28.64-7.99,81.95-53.09,89.05-3.19.5-12.21.57-21.58-2,.08.94.2,1.98.31,2.92.49,4.21.73,6.9-.05,8.72l-1.09,2.53c-2.99,6.93-4.4,14.27-4.2,21.81,1.33,49.05,4.1,106.8,4.91,123.33.08,1.51-.62,2.93-1.85,3.8-.75.53-1.63.8-2.52.8Zm-83.38-56.59c10.19,0,15.27,8.16,20.19,16.07,4.13,6.63,8.4,13.49,15.8,16.49l47.39,19.61c-.87-16.5-3.64-74.29-4.97-123.38-.22-8.19,1.31-16.16,4.55-23.68l1.09-2.53c.38-.87-.03-4.37-.28-6.46-.33-2.84-.62-5.3-.23-6.92.14-.6.53-1.12,1.08-1.42.54-.3,1.19-.36,1.77-.16,9.46,3.16,19.32,3.17,22.35,2.69,41.72-6.56,46.51-55.73,49.38-85.1.55-5.63,1-10.24,1.64-13.67-1.94-1.13-4.18-1.93-6.53-2.77-2.76-.99-5.6-2-8.09-3.63-2.48,5.04-4.85,11.11-7.33,17.48-8.52,21.84-18.18,46.58-38.2,43.24-22.55-3.76-54.02-25.08-58.98-28.52-5.05.19-22.05.43-28.15-4.94-15-2.56-23.41-.42-38.58,9.7-24.49,16.33-22.03,33.33-17.96,61.48l.13.87c1.36,9.41,3.06,12.87,4.87,16.52,2.31,4.67,4.69,9.51,6.21,25.76,4.16,44.37.73,51.03-10.93,68.03,5.48,2.33,24.54,7.71,40.9,5.46,1-.14,1.96-.21,2.88-.21Z"/>
          </g>
          <path class="cls-1" d="m968.99,1168.11c-.37,0-.75-.09-1.1-.29-1.06-.6-1.43-1.96-.82-3.02,6.61-11.57,3.33-29.86,3.3-30.04-.22-1.2.57-2.36,1.77-2.58,1.19-.21,2.35.57,2.58,1.77.15.81,3.61,20.05-3.81,33.05-.41.72-1.15,1.11-1.92,1.11Z"/>
        </g>
        <g>
          <g>
            <path class="cls-1" d="m1070.6,1003.38l6.35,701.25c.04,4.28-3.72,7.56-7.91,6.9h-.07c-3.33-.54-5.8-3.43-5.84-6.84l-6.28-701.24c-.03-3.76,2.9-6.86,6.62-6.98,3.87-.12,7.08,3,7.12,6.91Z"/>
            <path class="cls-1" d="m1070.11,1713.82c-.47,0-.95-.04-1.42-.11-4.49-.71-7.73-4.5-7.77-9.01l-6.28-701.24c-.04-5,3.81-9.05,8.77-9.21,2.43-.12,4.79.82,6.57,2.53,1.8,1.73,2.81,4.07,2.83,6.57l6.35,701.25c.02,2.71-1.13,5.27-3.17,7.03-1.65,1.42-3.74,2.19-5.88,2.19Zm-6.41-715.14s-.1,0-.15,0c-2.54.08-4.51,2.17-4.48,4.75l6.28,701.24c.02,2.34,1.69,4.3,3.97,4.67,1.4.22,2.76-.16,3.79-1.05,1.05-.91,1.65-2.23,1.63-3.63l-6.35-701.25c-.01-1.3-.53-2.52-1.47-3.42-.88-.84-2.02-1.3-3.22-1.3Z"/>
          </g>
          <g>
            <path class="cls-2" d="m1076.47,1652.73l.47,51.9c.04,4.28-3.72,7.56-7.91,6.9h-.07c-3.33-.54-5.8-3.43-5.83-6.84l-.5-51.55c4.6.04,9.24-.7,13.84-.41Z"/>
            <path class="cls-1" d="m1070.11,1713.82c-.47,0-.95-.04-1.42-.11-4.49-.71-7.73-4.5-7.77-9.01l-.5-51.55c0-.59.23-1.16.65-1.59.42-.42.91-.7,1.58-.65,1.91.01,3.81-.11,5.82-.23,2.65-.17,5.38-.34,8.14-.17,1.16.07,2.06,1.03,2.07,2.19l.47,51.9c.02,2.71-1.13,5.27-3.17,7.03-1.65,1.42-3.74,2.19-5.88,2.19Zm-5.24-58.51l.48,49.35c.02,2.34,1.69,4.31,3.97,4.67,1.41.22,2.76-.16,3.79-1.05,1.05-.91,1.65-2.23,1.63-3.63l-.45-49.78c-1.79-.05-3.63.11-5.53.23-1.27.08-2.58.17-3.89.21Z"/>
          </g>
          <g>
            <path class="cls-2" d="m991.57,1715.89h151.68c4.57,0,8.28,3.71,8.28,8.28v18.41h-167.13v-19.52c0-3.96,3.21-7.17,7.17-7.17Z" transform="translate(2135.93 3458.46) rotate(180)"/>
            <path class="cls-1" d="m1144.36,1744.79h-151.68c-5.78,0-10.49-4.71-10.49-10.49v-18.41c0-1.22.99-2.21,2.21-2.21h167.13c1.22,0,2.21.99,2.21,2.21v19.52c0,5.17-4.21,9.38-9.38,9.38Zm-157.75-26.69v16.2c0,3.34,2.72,6.06,6.06,6.06h151.68c2.73,0,4.96-2.23,4.96-4.96v-17.31h-162.71Z"/>
          </g>
          <path class="cls-1" d="m984.86,1718.26h166.21c.25,0,.46-.21.46-.46v-.32c0-4.16-3.37-7.53-7.53-7.53h-151.77c-4.33,0-7.84,3.51-7.84,7.84,0,.25.21.47.46.47Z"/>
          <rect class="cls-1" x="1042.48" y="1702.84" width="53.93" height="8.9" rx="2.88" ry="2.88" transform="translate(2138.89 3414.57) rotate(180)"/>
        </g>
        <g>
          <path class="cls-2" d="m1081.14,1023.71c-2.07-2.85-4.61-5.43-7.62-7.66-4.96-3.69-19.4-12.94-22.37-2.33-.89,3.2.55,6.59,2.39,9.35,7.37,11.06,18.99,20.71,31.28,25.81,4.47,1.85,2.5-9.61,2.07-11.81-.92-4.81-2.89-9.39-5.76-13.35Z"/>
          <path class="cls-1" d="m1085.72,1051.3c-.51,0-1.1-.1-1.75-.37-12.57-5.21-24.64-15.17-32.27-26.63-2.71-4.07-3.61-7.83-2.68-11.17,1.09-3.9,3.47-5.45,5.28-6.07,6.69-2.29,16.59,4.29,20.53,7.22,3.15,2.34,5.87,5.08,8.09,8.14,3.03,4.19,5.15,9.11,6.14,14.23,1.43,7.43,1.07,12.09-1.08,13.84-.43.35-1.2.81-2.27.81Zm-28.29-40.31c-.62,0-1.19.08-1.69.25-.76.26-1.83.86-2.45,3.07-.71,2.55.75,5.5,2.1,7.53,7.09,10.65,18.25,19.9,29.91,24.84.35-1.38.25-4.9-.57-9.19-.86-4.49-2.72-8.81-5.38-12.47-1.95-2.7-4.36-5.11-7.14-7.19-4.51-3.35-10.7-6.84-14.77-6.84Z"/>
        </g>
        <g>
          <path class="cls-2" d="m1010.25,1148.19l-10.84-32.82-53.73-4.74c1.24,25.16-7.28,49.88-21.34,74.34-5.93,25.69-16.33,47.49-41.88,56.15l-4.74,17.4c11.74,1.19,13.01,10.46,12.64,21.35-38.05,89.3-78.31,203.89-96.41,219.84,50.31,26.66,111.73,59.41,169.9,71.96,27.18-92.26,45.53-179.92,47.76-259.15l-1.37-164.33Z"/>
          <path class="cls-1" d="m963.85,1573.88c-.15,0-.31-.02-.47-.05-57.83-12.48-119.36-45.09-168.81-71.29l-1.66-.88c-.64-.34-1.08-.97-1.16-1.7-.09-.72.19-1.44.73-1.92,12.01-10.59,35.33-69.13,60.02-131.1,11.67-29.29,23.73-59.56,35.65-87.57.33-11.11-1.37-17.72-10.67-18.67-.65-.07-1.23-.41-1.6-.95-.37-.54-.48-1.21-.31-1.83l4.74-17.4c.19-.71.73-1.28,1.42-1.51,21.17-7.17,33.27-23.49,40.44-54.55.05-.21.13-.42.24-.6,15.27-26.59,22.16-50.51,21.04-73.13-.03-.64.22-1.26.68-1.7.46-.44,1.09-.67,1.73-.61l53.73,4.74c.88.08,1.63.67,1.91,1.51l10.84,32.82c.07.22.11.45.11.67l1.37,164.33c-2.04,72.46-17.69,157.41-47.85,259.79-.28.96-1.16,1.59-2.12,1.59Zm-166.26-74.75c48.47,25.68,108.43,57.35,164.72,69.94,29.67-101.13,45.07-185.09,47.09-256.61l-1.36-163.9-10.27-31.11-49.79-4.4c.54,22.65-6.52,46.48-21.56,72.73-4.97,21.4-14.3,47.02-42.13,57.03l-3.79,13.9c12.75,2.83,12.31,15.96,12.07,23.22,0,.27-.07.54-.18.79-11.95,28.06-24.06,58.46-35.77,87.85-24.56,61.65-45.95,115.35-59.03,130.55Z"/>
        </g>
        <g>
          <path class="cls-2" d="m888.78,1089.92c-13.47,10.37-19.25,38.23-20.11,60.31l2.84,55.26c-.47,12.05,8.29,22.48,20.24,24.09l145.62,18.36,4.14-37.91-113.81-23.49c-3.94-.79-6.63-4.45-6.2-8.44l4.28-40.19-37-47.98Z"/>
          <g>
            <path class="cls-2" d="m1041.54,1215.9l11.14-1.29c4.78-.55,9.6-.61,14.39-.16l8.05.75c1.2.11,2.32.68,3.12,1.59l.1.12c1.46,1.67,1.58,4.13.27,5.92-.85,1.17-2.19,1.88-3.63,1.94l-7.85.32c-.51.02-.6.74-.11.89,4.24,1.25,8.68,2.23,12.83,3.78,3.28,1.23,4.24,1.72,4.12,5.39-.11,3.29-1.8,7.59-4.64,9.44-3.53,2.31-10.95.7-14.9.08l-25.53-4.32,2.66-24.45Z"/>
            <path class="cls-1" d="m1073.83,1248.02c-2.86,0-5.88-.51-8.4-.94l-26.92-4.54c-1.21-.21-2.02-1.35-1.81-2.55.2-1.21,1.34-2,2.55-1.81l26.92,4.55c3.32.56,9.5,1.6,11.93.02,2.16-1.41,3.55-5.01,3.64-7.67q.08-2.21-2.68-3.24c-2.66-1-5.55-1.77-8.34-2.52-1.45-.39-2.9-.78-4.33-1.2-1.26-.37-2.06-1.59-1.89-2.89.16-1.3,1.23-2.28,2.54-2.33l7.85-.32c.77-.03,1.48-.41,1.93-1.04.69-.95.63-2.28-.14-3.16-.53-.6-1.12-.9-1.76-.96l-8.05-.75c-4.63-.43-9.32-.37-13.93.16l-11.13,1.29c-1.2.16-2.31-.73-2.45-1.94-.14-1.21.73-2.31,1.94-2.45l11.13-1.29c4.92-.57,9.92-.63,14.85-.17l8.05.75c1.78.17,3.4,1,4.58,2.34,2.27,2.58,2.43,6.15.49,8.8-.81,1.11-1.91,1.94-3.16,2.41,1.14.35,2.27.72,3.38,1.14,3.56,1.33,5.73,2.41,5.55,7.54-.13,3.71-1.95,8.8-5.64,11.22-1.81,1.18-4.19,1.57-6.69,1.57Zm-6.61-20.71h-.01.01Z"/>
          </g>
          <path class="cls-1" d="m1037.37,1250.16c-.09,0-.18,0-.28-.02l-145.62-18.36c-13.17-1.77-22.69-13.1-22.17-26.37l-2.26-43.77c-.68-13.25.04-25.94,2.15-37.73,2.22-12.41,5.71-23.28,10.38-32.33.56-1.08,1.89-1.51,2.98-.95,1.09.56,1.51,1.89.95,2.98-4.47,8.65-7.82,19.11-9.96,31.08-2.05,11.46-2.75,23.81-2.08,36.72l2.26,43.97c-.43,11.17,7.45,20.55,18.32,22.01l143.37,18.08,3.68-33.68-111.84-23.09c-5-1-8.4-5.53-7.98-10.6l-3.1-30.65c-.12-1.22.76-2.3,1.98-2.42,1.24-.1,2.3.76,2.42,1.98l3.12,30.86c.02.15.01.3,0,.46-.31,2.88,1.6,5.47,4.43,6.04l113.82,23.49c1.12.23,1.88,1.27,1.75,2.41l-4.14,37.91c-.06.59-.36,1.13-.83,1.5-.39.31-.88.48-1.37.48Z"/>
        </g>
        <g>
          <path class="cls-2" d="m945.68,1110.63c-4.9-14.18-16.46-28.36-30.62-40.63l11.56-2.37c11.73,10.18,22.85,24.71,33.19,44.78l-14.12-1.78Z"/>
          <path class="cls-1" d="m959.8,1114.62c-.09,0-.18,0-.28-.02l-14.12-1.78c-.84-.11-1.54-.68-1.81-1.47-4.42-12.8-14.79-26.52-29.98-39.68-.64-.55-.91-1.42-.69-2.23.21-.81.87-1.44,1.69-1.61l11.56-2.37c.68-.14,1.37.04,1.89.49,12.36,10.72,23.7,26,33.71,45.44.38.73.32,1.61-.15,2.28-.42.6-1.1.94-1.81.94Zm-12.5-6.02l8.56,1.08c-9.03-16.73-19.06-30.06-29.88-39.67l-6.16,1.27c10.12,9.26,21.93,22.43,27.48,37.32Z"/>
        </g>
        <g>
          <path class="cls-2" d="m999.41,1115.37c-4.48-12.62-11.49-23.83-21.24-33.51l-12.35-8.29c11.41,14.73,19.47,28.31,21.24,39.72l12.35,2.08Z"/>
          <path class="cls-1" d="m999.41,1117.59c-.12,0-.24-.01-.37-.03l-12.35-2.08c-.94-.16-1.67-.9-1.82-1.84-1.55-9.98-8.35-22.64-20.8-38.71-.66-.86-.61-2.07.13-2.86.74-.8,1.95-.93,2.85-.33l12.35,8.29c.12.08.23.17.33.27,9.81,9.74,17.13,21.3,21.76,34.34.26.74.11,1.56-.39,2.16-.42.51-1.05.79-1.69.79Zm-10.44-6.21l7.01,1.18c-4.4-10.9-10.85-20.63-19.21-28.97l-1.72-1.16c7.72,11.29,12.31,20.83,13.93,28.95Z"/>
        </g>
      </g>
      <g>
        <g>
          <g>
            <ellipse class="cls-2" cx="807.7" cy="573.24" rx="94.68" ry="94.75"/>
            <path class="cls-1" d="m807.7,670.2c-53.42,0-96.89-43.5-96.89-96.96s43.46-96.96,96.89-96.96c53.43,0,96.89,43.5,96.89,96.96s-43.46,96.96-96.89,96.96Zm0-189.5c-50.98,0-92.46,41.51-92.46,92.54s41.48,92.54,92.46,92.54,92.47-41.51,92.47-92.54-41.48-92.53-92.47-92.54Z"/>
          </g>
          <g>
            <rect class="cls-1" x="774.12" y="560.57" width="67.15" height="23.69" transform="translate(1615.39 1144.83) rotate(-180)"/>
            <g>
              <rect class="cls-2" x="844.03" y="536.88" width="19.82" height="70.51" rx="6.64" ry="6.64" transform="translate(1707.87 1144.27) rotate(180)"/>
              <path class="cls-1" d="m857.2,609.6h-6.54c-4.88,0-8.85-3.97-8.85-8.85v-57.24c0-4.88,3.97-8.85,8.85-8.85h6.54c4.88,0,8.85,3.97,8.85,8.85v57.24c0,4.88-3.97,8.85-8.85,8.85Zm-6.54-70.51c-2.44,0-4.43,1.99-4.43,4.42v57.24c0,2.44,1.98,4.42,4.42,4.42h6.54c2.44,0,4.42-1.99,4.42-4.42v-57.24c0-2.44-1.98-4.42-4.42-4.42h-6.54Z"/>
            </g>
            <g>
              <rect class="cls-2" x="859.99" y="544.53" width="15.96" height="59" rx="6.64" ry="6.64" transform="translate(1735.94 1148.06) rotate(180)"/>
              <path class="cls-1" d="m869.31,605.75h-2.69c-4.88,0-8.85-3.97-8.85-8.85v-45.73c0-4.88,3.97-8.85,8.85-8.85h2.69c4.88,0,8.85,3.97,8.85,8.85v45.73c0,4.88-3.97,8.85-8.85,8.85Zm-2.69-59c-2.44,0-4.42,1.99-4.42,4.42v45.73c0,2.44,1.98,4.42,4.42,4.42h2.69c2.44,0,4.42-1.99,4.42-4.42v-45.73c0-2.44-1.98-4.42-4.42-4.42h-2.69Z"/>
            </g>
            <g>
              <rect class="cls-2" x="740.54" y="543.98" width="15.96" height="59" rx="6.64" ry="6.64" transform="translate(1497.04 1146.96) rotate(180)"/>
              <path class="cls-1" d="m749.87,605.19h-2.69c-4.88,0-8.85-3.97-8.85-8.85v-45.73c0-4.88,3.97-8.85,8.85-8.85h2.69c4.88,0,8.85,3.97,8.85,8.85v45.73c0,4.88-3.97,8.85-8.85,8.85Zm-2.69-59c-2.44,0-4.42,1.99-4.42,4.42v45.73c0,2.44,1.98,4.42,4.42,4.42h2.69c2.44,0,4.42-1.99,4.42-4.42v-45.73c0-2.44-1.98-4.42-4.42-4.42h-2.69Z"/>
            </g>
            <g>
              <rect class="cls-2" x="749.91" y="537.43" width="19.82" height="70.51" rx="6.64" ry="6.64" transform="translate(1519.63 1145.37) rotate(180)"/>
              <path class="cls-1" d="m763.09,610.15h-6.54c-4.88,0-8.85-3.97-8.85-8.85v-57.24c0-4.88,3.97-8.85,8.85-8.85h6.54c4.88,0,8.85,3.97,8.85,8.85v57.24c0,4.88-3.97,8.85-8.85,8.85Zm-6.54-70.51c-2.44,0-4.42,1.99-4.42,4.42v57.24c0,2.44,1.98,4.42,4.42,4.42h6.54c2.44,0,4.42-1.99,4.42-4.42v-57.24c0-2.44-1.98-4.42-4.42-4.42h-6.54Z"/>
            </g>
          </g>
        </g>
        <g>
          <g>
            <g>
              <ellipse class="cls-2" cx="1091.41" cy="485.54" rx="93.04" ry="93.11"/>
              <path class="cls-1" d="m1091.41,580.86c-52.52,0-95.25-42.76-95.25-95.32s42.73-95.32,95.25-95.32,95.25,42.76,95.25,95.32c0,52.56-42.73,95.32-95.25,95.32Zm0-186.22c-50.08,0-90.83,40.78-90.83,90.9s40.74,90.89,90.83,90.89,90.83-40.78,90.83-90.89c0-50.12-40.74-90.9-90.83-90.9Z"/>
            </g>
            <g>
              <ellipse class="cls-2" cx="1091.41" cy="485.1" rx="66.08" ry="66.13"/>
              <path class="cls-1" d="m1091.41,553.44c-37.66,0-68.29-30.66-68.29-68.34s30.64-68.34,68.29-68.34,68.29,30.66,68.29,68.34-30.64,68.34-68.29,68.34Zm0-132.26c-35.22,0-63.87,28.68-63.87,63.92s28.65,63.92,63.87,63.92,63.87-28.68,63.87-63.92-28.65-63.92-63.87-63.92Z"/>
            </g>
          </g>
          <g>
            <g>
              <path class="cls-1" d="m1090.04,443.53c0,14.55,8.26,26.35,18.46,26.35s18.46-11.8,18.46-26.35c0-14.55-8.26-26.35-18.46-26.35-10.19,0-18.46,11.8-18.46,26.35Z"/>
              <path class="cls-1" d="m1108.59,556.04h2.52c2.83,0,5.12-2.33,5.06-5.17l-1.97-86.22-8.6,3.26-2.09,82.92c-.08,2.85,2.22,5.21,5.07,5.21Z"/>
            </g>
            <g>
              <path class="cls-1" d="m1072.33,556.93h2.52c2.83,0,5.12-2.33,5.06-5.17l-1.95-81.61h-8.45l-2.25,81.57c-.08,2.85,2.22,5.21,5.07,5.21Z"/>
              <path class="cls-1" d="m1060.36,460.93v-.25s.02-2.13.02-2.13l1.2-39.88c.01-.33.32-.6.69-.6h1.13c.31,0,.56.22.57.5l.97,39.33c0,.36.34.65.75.65h1.45c.29,0,.52-.2.53-.46l1.19-39.58c0-.24.23-.44.51-.44h1.33c.29,0,.53.21.54.47l.97,39.35c0,.37.34.66.75.66h1.18c.44,0,.79-.31.81-.7l1.18-39.2c0-.32.31-.58.66-.58h1.09c.35,0,.63.25.64.55l.96,39.04c.01.49.46.88,1.01.88h1.48c.26,0,.47-.18.47-.41l1.19-39.58c0-.27.26-.49.56-.49h1.17c.35,0,.64.12.65.43l.82,40.05v5.58c0,3.93-3.57,7.12-7.98,7.12h-10.88c-4.24,0-7.68-2.99-7.68-6.78l.04-3.54Z"/>
            </g>
          </g>
        </g>
        <g>
          <g>
            <ellipse class="cls-2" cx="628.83" cy="799.15" rx="94.68" ry="94.75"/>
            <path class="cls-1" d="m629.01,896.12c-3.19,0-6.4-.16-9.62-.47-53.17-5.21-92.19-52.74-86.99-105.95,2.52-25.78,14.92-49.02,34.92-65.47,20-16.44,45.19-24.11,70.95-21.58,53.17,5.21,92.19,52.74,86.98,105.95-2.52,25.78-14.92,49.03-34.92,65.47-17.5,14.39-38.98,22.06-61.33,22.06Zm-.35-189.51c-21.33,0-41.83,7.32-58.53,21.04-19.08,15.69-30.92,37.88-33.33,62.48-4.97,50.78,32.27,96.14,83.01,101.11,24.59,2.4,48.63-4.91,67.71-20.6,19.08-15.69,30.92-37.88,33.33-62.48,4.97-50.78-32.27-96.14-83.01-101.11-3.07-.3-6.14-.45-9.18-.45Z"/>
          </g>
          <g>
            <path class="cls-1" d="m626.73,787.66l-5.67,8.38c-.39.58-.53,1.3-.38,1.98l1.11,5.05c.15.68.01,1.4-.38,1.98l-2.91,4.31c-.41.6-1.06,1-1.78,1.1l-4.81.64c-.72.1-1.37.5-1.78,1.1l-1.98,2.93c-.79,1.17-.48,2.76.68,3.55,1.17.79,1.47,2.38.68,3.55l-1.79,2.64c-.79,1.17-2.38,1.48-3.55.68s-2.76-.48-3.55.68l-1.88,2.79c-.42.62-.55,1.39-.35,2.11l1.24,4.52c.2.72.07,1.49-.35,2.11l-3.1,4.58c-.4.59-1.03.99-1.74,1.1l-4.93.72c-.71.1-1.34.5-1.74,1.1l-2.69,3.98c-.52.77-.58,1.76-.16,2.59l3.92,7.75c.4.79,1.18,1.32,2.06,1.39l8.57.72c.92.08,1.81-.35,2.33-1.11l41.64-61.58c.59-.87,1.64-1.28,2.66-1.06,11.52,2.46,23.75-1.82,31.21-11.62,11.2-14.71,7.16-36.09-8.64-45.69-14.12-8.59-32.58-4.6-41.95,9.25-7.33,10.85-6.91,24.68,0,34.95.58.86.58,1.99,0,2.85Zm36.73-37.52c4.09,2.41,5.13,7.83,2.23,11.59-2.39,3.1-6.79,3.95-10.16,1.96-4.09-2.41-5.13-7.83-2.23-11.59,2.39-3.1,6.79-3.95,10.16-1.96Z"/>
            <path class="cls-2" d="m633.72,796.49l-36.37,53.78c-.68,1.01-.42,2.38.59,3.06,1.01.68,2.38.42,3.06-.59l36.37-53.78c.68-1.01.42-2.38-.59-3.06-1.01-.68-2.38-.42-3.06.59Z"/>
          </g>
        </g>
      </g>
      <g>
        <path class="cls-2" d="m1322.61,569.16h292.45c14.67,0,26.05-12.81,24.3-27.37l-23.24-183.02c-1.47-12.3-11.91-21.56-24.3-21.56h-292.45c-14.67,0-26.05,12.81-24.3,27.37l23.24,183.02c1.47,12.3,11.91,21.56,24.3,21.56Z"/>
        <path class="cls-1" d="m1325.18,573.93c-13.52,0-24.92-10.1-26.52-23.51l-25.78-185.53c-.91-7.61,1.47-15.22,6.53-20.91,5.06-5.7,12.34-8.97,19.97-8.97h292.46c13.5,0,24.89,10.1,26.5,23.51l9.95,78.35c.15,1.21-.7,2.32-1.92,2.47-1.21.14-2.32-.7-2.47-1.92l-9.95-78.36c-1.34-11.19-10.84-19.62-22.11-19.62h-292.46c-6.36,0-12.43,2.73-16.66,7.49-4.22,4.76-6.2,11.1-5.45,17.41l25.78,185.53c1.35,11.22,10.85,19.65,22.11,19.65l263.05-2.55h.02c1.21,0,2.2.98,2.21,2.19.01,1.22-.97,2.22-2.19,2.23l-263.07,2.55Z"/>
        <g>
          <g>
            <path class="cls-1" d="m1455.11,472.82h-111.5c-1.22,0-2.21-.99-2.21-2.21s.99-2.21,2.21-2.21h111.5c1.22,0,2.21.99,2.21,2.21s-.99,2.21-2.21,2.21Z"/>
            <path class="cls-1" d="m1396.25,504.5h-49.59c-1.22,0-2.21-.99-2.21-2.21s.99-2.21,2.21-2.21h49.59c1.22,0,2.21.99,2.21,2.21s-.99,2.21-2.21,2.21Z"/>
            <path class="cls-1" d="m1489.21,537.81h-138.18c-1.22,0-2.21-.99-2.21-2.21s.99-2.21,2.21-2.21h138.18c1.22,0,2.21.99,2.21,2.21s-.99,2.21-2.21,2.21Z"/>
          </g>
          <path class="cls-1" d="m1606.12,544.27h-91.13c-2.8,0-4.97-1.51-5.29-3.66l-11.31-76.82c-.16-1.07.17-2.13.92-3,1.05-1.22,2.84-1.95,4.77-1.95h91.13c2.8,0,4.97,1.51,5.29,3.66l11.31,76.82c.16,1.06-.17,2.12-.92,2.99-1.05,1.22-2.84,1.95-4.77,1.95Zm-92.09-4.61c.16.08.48.19.96.19h91.13c.59,0,1.03-.16,1.26-.29l-11.21-76.1c-.16-.08-.48-.19-.96-.19h-91.13c-.59,0-1.03.16-1.26.29l11.21,76.1Z"/>
          <g>
            <path class="cls-1" d="m1410.2,397.19h-8.9l-2.4-16.67h-13.18l2.4,16.67h-8.95l-5.75-39.92h8.95l2.28,15.85h13.18l-2.28-15.85h8.9l5.75,39.92Z"/>
            <path class="cls-1" d="m1444.55,378.05c.56,3.9.38,7.34-.52,10.34-.91,3-2.49,5.31-4.73,6.92-2.24,1.62-4.94,2.42-8.1,2.42s-6.08-.78-8.75-2.34c-2.67-1.56-4.9-3.8-6.69-6.7-1.79-2.91-2.99-6.24-3.6-10.01l-.32-2.25c-.56-3.91-.39-7.36.51-10.35.9-2.99,2.48-5.3,4.74-6.92,2.26-1.63,4.97-2.44,8.15-2.44s6.06.8,8.76,2.41c2.7,1.61,4.94,3.9,6.74,6.87,1.8,2.97,2.98,6.38,3.55,10.21l.26,1.84Zm-9.35-1.67c-.57-3.97-1.62-6.98-3.15-9.03-1.53-2.06-3.44-3.08-5.74-3.08-4.49,0-6.34,3.62-5.55,10.86l.4,2.93c.56,3.91,1.6,6.92,3.11,9.02,1.51,2.1,3.45,3.15,5.83,3.15s3.86-1.03,4.78-3.1c.92-2.06,1.12-5.03.58-8.91l-.27-1.84Z"/>
            <path class="cls-1" d="m1474.22,364.7h-11.14l4.68,32.49h-8.95l-4.68-32.49h-10.94l-1.07-7.43h31.03l1.07,7.43Z"/>
            <path class="cls-1" d="m1503.26,380.25h-14.08l1.37,9.54h16.63l1.07,7.4h-25.57l-5.75-39.92h25.63l1.07,7.43h-16.68l1.21,8.42h14.08l1.03,7.13Z"/>
            <path class="cls-1" d="m1519.77,389.79h15.58l1.07,7.4h-24.53l-5.75-39.92h8.95l4.68,32.52Z"/>
          </g>
          <g>
            <path class="cls-1" d="m1373.47,420.85l-10.44-1.5-6.2-9.36c-1.33-2.01-4.16-2.01-4.79,0l-2.9,9.36-9.91,1.5c-2.13.32-2.52,3.05-.66,4.62l8.65,7.29.07,10.29c.02,2.21,2.6,3.9,4.37,2.85l8.25-4.86,9.96,4.86c2.14,1.04,4.13-.64,3.37-2.85l-3.55-10.29,6.08-7.29c1.31-1.57-.05-4.3-2.29-4.62Z"/>
            <path class="cls-1" d="m1420.47,420.85l-10.44-1.5-6.2-9.36c-1.33-2.01-4.16-2.01-4.79,0l-2.9,9.36-9.91,1.5c-2.13.32-2.52,3.05-.66,4.62l8.65,7.29.07,10.29c.02,2.21,2.6,3.9,4.37,2.85l8.25-4.86,9.96,4.86c2.14,1.04,4.13-.64,3.37-2.85l-3.55-10.29,6.08-7.29c1.31-1.57-.05-4.3-2.29-4.62Z"/>
            <path class="cls-1" d="m1467.46,420.85l-10.44-1.5-6.2-9.36c-1.33-2.01-4.16-2.01-4.79,0l-2.9,9.36-9.91,1.5c-2.13.32-2.52,3.05-.66,4.62l8.65,7.29.07,10.29c.02,2.21,2.6,3.9,4.37,2.85l8.25-4.86,9.96,4.86c2.14,1.04,4.13-.64,3.37-2.85l-3.55-10.29,6.08-7.29c1.31-1.57-.05-4.3-2.29-4.62Z"/>
            <path class="cls-1" d="m1514.46,420.85l-10.44-1.5-6.2-9.36c-1.33-2.01-4.16-2.01-4.79,0l-2.9,9.36-9.91,1.5c-2.13.32-2.52,3.05-.66,4.62l8.65,7.29.07,10.29c.02,2.21,2.6,3.9,4.37,2.85l8.25-4.86,9.96,4.86c2.14,1.04,4.13-.64,3.37-2.85l-3.55-10.29,6.08-7.29c1.31-1.57-.05-4.3-2.29-4.62Z"/>
            <path class="cls-1" d="m1561.46,420.85l-10.44-1.5-6.2-9.36c-1.33-2.01-4.16-2.01-4.79,0l-2.9,9.36-9.91,1.5c-2.13.32-2.52,3.05-.66,4.62l8.65,7.29.07,10.29c.02,2.21,2.6,3.9,4.37,2.85l8.25-4.86,9.96,4.86c2.14,1.04,4.13-.64,3.37-2.85l-3.55-10.29,6.08-7.29c1.31-1.57-.05-4.3-2.29-4.62Z"/>
          </g>
        </g>
      </g>
      <g>
        <g>
          <g>
            <g>
              <path class="cls-2" d="m2054.23,1128.82c4.73,9.6,14.72,30.96,19.92,52.62,2.1,8.75-.16,13.69-2.16,20.78-2.86,10.19-6.09,14.96-4.69,17.85,2.94,6.07,36.71,4.57,47.91-13.89,3.58-5.9,4.32-14.55-1.59-45.35-6.06-31.6-3.8-36.53-8.47-40.38-14.67-12.1-46.85,6.02-50.93,8.37Z"/>
              <path class="cls-1" d="m2078.45,1225.47c-.67,0-1.32-.02-1.94-.04-4.23-.2-9.61-1.12-11.2-4.4-1.29-2.66-.18-5.67,1.5-10.23.89-2.43,2-5.45,3.05-9.18.29-1.02.58-2,.87-2.96,1.64-5.47,2.93-9.78,1.27-16.7-4.67-19.45-13.32-39.09-19.75-52.16-.51-1.05-.13-2.31.88-2.89,6.23-3.59,38.06-20.84,53.45-8.16,3.43,2.83,3.84,6.05,4.95,14.66.72,5.63,1.82,14.15,4.28,27.01,6.08,31.71,5.26,40.39,1.3,46.91-8.2,13.51-26.87,18.15-38.65,18.15Zm-21.31-95.74c6.42,13.23,14.62,32.27,19.16,51.19,1.94,8.08.43,13.14-1.33,19.01-.28.93-.56,1.89-.84,2.88-1.1,3.9-2.24,7.01-3.16,9.51-1.15,3.12-2.14,5.81-1.67,6.78.25.51,2.5,1.7,7.54,1.92,10.11.44,28.92-3.51,36.49-15.99,3.21-5.3,3.87-13.84-1.87-43.78-2.49-13-3.59-21.6-4.33-27.28-1.07-8.33-1.37-10.15-3.38-11.81-12.08-9.98-38.88,3.37-46.62,7.57Z"/>
            </g>
            <path class="cls-1" d="m2074.09,1218.99c-1.14,0-2.1-.87-2.2-2.02-.11-1.22.8-2.29,2.01-2.4,12.64-1.1,21.61-5.6,26.66-13.36,9.58-14.74,2.22-36.66,2.14-36.88-.4-1.16.22-2.41,1.37-2.81,1.15-.4,2.41.22,2.81,1.37.34.98,8.13,24.19-2.62,40.73-5.83,8.96-15.91,14.13-29.98,15.35-.06,0-.13,0-.19,0Z"/>
          </g>
          <g>
            <g>
              <path class="cls-2" d="m1901.01,1159.9s-1.75,13.61,3.98,44.89c.82,4.49-3.94,8.19-8.48,8.59-18.55,1.64-62.11,4.59-98.46,3.44-3.36-.11-5.82-2.68-6.57-4.87-6.73-19.63,46.83-25.9,49-39.2,3.89-23.8,60.54-12.85,60.54-12.85Z"/>
              <path class="cls-1" d="m1815.59,1219.3c-5.93,0-11.84-.08-17.62-.27-4.26-.13-7.54-3.3-8.59-6.36-4.53-13.22,12.82-20.65,28.13-27.21,9.4-4.03,20.05-8.6,20.78-13.06.73-4.47,3.12-8.15,7.1-10.92,16.19-11.28,54.42-4.06,56.04-3.74,1.15.22,1.92,1.29,1.78,2.45-.02.13-1.62,13.77,3.96,44.21.42,2.27-.16,4.51-1.66,6.49-1.97,2.59-5.35,4.4-8.8,4.7-4.85.43-43.19,3.71-81.11,3.71Zm58.28-59.7c-9.74,0-19.84,1.25-25.95,5.51-3,2.1-4.72,4.71-5.26,8.01-1.12,6.86-11.45,11.29-23.41,16.41-14.2,6.09-28.88,12.38-25.69,21.71.43,1.26,2.05,3.29,4.55,3.37,42.49,1.34,92.62-2.94,98.2-3.43,2.19-.19,4.47-1.39,5.67-2.97.74-.97,1.02-1.99.83-3.01-4.53-24.74-4.44-38.51-4.17-43.46-4.12-.68-14.23-2.14-24.77-2.14Z"/>
            </g>
            <path class="cls-1" d="m1822.18,1211.1c-6.8,0-13.52-.2-19.93-.67-1.22-.09-2.13-1.15-2.05-2.37.09-1.22,1.16-2.13,2.37-2.05,38.88,2.8,86.6-4.08,91.1-6.98,1.03-.66,2.39-.36,3.06.66.66,1.03.37,2.4-.66,3.06-5.24,3.37-40.34,8.34-73.89,8.34Z"/>
          </g>
          <g>
            <path class="cls-2" d="m1812.52,671.77s4.61,327.71-10.96,475.44c-2.54,24.08,17.09,44.72,41.24,43.39,7.56-.42,16.32-2.08,26.47-5.5,22.75-7.67,40.65-9.08,53.37-8.34,12.47.72,22.92-9.35,22.89-21.85-.17-63.59-1.76-224.12-13.3-291.52,0,0,48.89,141.86,88.96,267.13,4.75,14.85,18.91,24.55,34.47,23.76,17.59-.9,42.08-5.53,68.88-20.66,18.21-10.28,26.81-31.89,20.95-51.97-21.71-74.32-88.09-266.82-231.03-428.19l-101.94,18.31Z"/>
            <path class="cls-1" d="m1840.62,1192.88c-11.33,0-22.18-4.63-30.05-12.9-8.41-8.84-12.5-20.86-11.22-32.99,15.39-145.91,11-471.91,10.95-475.18-.02-1.08.76-2.02,1.82-2.21l101.94-18.31c.76-.14,1.53.13,2.05.71,142.97,161.41,209.52,353.81,231.49,429.04,6.22,21.28-2.82,43.7-21.98,54.52-27.96,15.78-53.42,20.1-69.85,20.94-16.58.86-31.65-9.55-36.69-25.29-30.41-95.06-66.27-200.75-81.5-245.35,8.66,75.47,10,210.28,10.16,269.07.02,6.63-2.73,13.04-7.54,17.59-4.82,4.56-11.13,6.87-17.69,6.48-15.93-.92-33.61,1.85-52.54,8.23-9.69,3.27-18.79,5.15-27.06,5.61-.77.04-1.53.06-2.3.06Zm-25.86-519.26c.34,26.97,3.8,333.45-11,473.83-1.14,10.84,2.51,21.58,10.02,29.48,7.5,7.89,18.02,12.05,28.9,11.47,7.87-.43,16.58-2.25,25.89-5.39,19.46-6.57,37.69-9.42,54.2-8.45,5.38.31,10.47-1.57,14.39-5.28,3.93-3.72,6.17-8.95,6.16-14.36-.17-65.23-1.8-224.17-13.26-291.16-.19-1.14.51-2.23,1.63-2.52,1.12-.29,2.26.33,2.64,1.42.49,1.42,49.36,143.31,88.98,267.18,4.42,13.83,17.67,22.98,32.25,22.22,15.96-.81,40.7-5.01,67.9-20.37,17.36-9.8,25.55-30.12,19.91-49.42-21.85-74.8-87.93-265.86-229.74-426.41l-98.87,17.76Z"/>
          </g>
          <path class="cls-1" d="m1941.13,898.05c-.95,0-1.83-.62-2.12-1.58-5.79-19.4-20.72-58.63-32.76-88.88-6.47-16.24-20.48-28.32-37.5-32.31-1.19-.28-1.93-1.47-1.65-2.66.28-1.19,1.47-1.92,2.66-1.65,18.42,4.32,33.59,17.4,40.59,34.98,12.08,30.33,27.06,69.71,32.89,89.25.35,1.17-.32,2.4-1.49,2.75-.21.06-.43.09-.63.09Z"/>
        </g>
        <g>
          <g>
            <path class="cls-2" d="m1589.09,460.08c-1.62-2.29-.9-5.54,1.68-6.89,1.82-.96,4.07-.52,5.55.91l23.44,22.71,2.5-.48c4.91-.94,9.61,2.45,10.26,7.42,0,0-.31,14.52,4.07,20.19,22.54,29.28,74.12,80.61,82.08,80.61,8.55,0,22.79-7.98,22.79-7.98l64.38,12.54s-33.04,52.45-89.45,39.91c-47.51-10.57-90.56-88.27-102.97-112.52-1.48-2.9-3.88-5.21-6.78-6.69-1.21-.62-2.36-1.41-3.4-2.35l-9.67-8.78c-3.66-3.32-4.86-8.56-3.01-13.14l2.32-5.73c2.3-5.69,1.55-12.17-1.98-17.18l-1.79-2.54Z"/>
            <path class="cls-1" d="m1733.48,633.14c-5.59,0-11.45-.61-17.58-1.97-48.51-10.79-92.21-89.73-104.46-113.67-1.24-2.43-3.26-4.41-5.82-5.73-1.41-.72-2.71-1.62-3.88-2.68l-9.67-8.78c-4.32-3.92-5.76-10.19-3.57-15.61l2.32-5.74c2.03-5.02,1.38-10.66-1.74-15.08l-1.79-2.53s0,0,0,0c-1.15-1.63-1.54-3.67-1.07-5.61.47-1.94,1.75-3.58,3.53-4.52,2.63-1.38,5.89-.87,8.12,1.29l22.61,21.9,1.37-.26c2.98-.56,5.98.1,8.44,1.87,2.46,1.78,4.03,4.42,4.43,7.43.02.11.02.22.02.33-.08,3.82.42,14.66,3.61,18.8,23.71,30.79,73.66,79.32,80.34,79.74,7.87,0,21.56-7.62,21.69-7.7.46-.26.99-.35,1.51-.24l64.38,12.54c.72.14,1.32.62,1.61,1.29s.23,1.44-.16,2.06c-.3.48-27.61,42.86-74.22,42.86Zm-142.58-174.34l1.79,2.54c3.99,5.66,4.82,12.87,2.23,19.29l-2.32,5.74c-1.5,3.7-.51,7.99,2.44,10.67l9.67,8.78c.88.8,1.86,1.48,2.92,2.02,3.4,1.74,6.08,4.39,7.74,7.65,12.02,23.5,54.86,101,101.48,111.37,46.81,10.41,77.5-25.84,85.2-36.23l-60.25-11.74c-3.09,1.66-15.17,7.87-23.15,7.87-9.72,0-62.57-53.85-83.83-81.47-4.56-5.93-4.56-19.16-4.53-21.41-.27-1.73-1.19-3.24-2.61-4.27-1.46-1.06-3.24-1.46-5.02-1.11l-2.49.48c-.71.13-1.44-.08-1.96-.59l-23.44-22.71c-.83-.8-2.05-1.03-2.98-.54-.66.35-1.12.93-1.29,1.64-.17.7-.03,1.44.38,2.02Z"/>
          </g>
          <path class="cls-1" d="m1783.49,519.08c11.15-15.48,29.2-24.47,48.26-24.14l109.28,1.54c9.67.14,17.46,7.96,17.57,17.63l.75,65.1,10.8,102.51c-49.35-36.79-100.79-5.32-129.57,4.31-28.78,9.63-37.6-3.42-37.6-3.42l2.85-86.09s-9.68,21.78-35.75,38.19c-3.4,2.14-7.88.7-9.53-2.95-7.75-17.12-22.56-28.78-23.65-53.66-.24-5.49,2.19-10.74,6.44-14.23,15.48-12.69,29.8-30.41,40.15-44.78Z"/>
          <g>
            <g>
              <path class="cls-2" d="m1863.42,680.22l85.57-86.62c2.18-2.21,5.73-2.23,7.94-.05l113.16,111.94c2.2,2.18,2.22,5.74.05,7.94l-85.57,86.62c-2.18,2.21-5.73,2.23-7.94.05l-113.16-111.94c-2.2-2.18-2.22-5.74-.05-7.94Z"/>
              <path class="cls-1" d="m1980.57,803.94c-1.99,0-3.98-.75-5.5-2.26l-113.16-111.94c-3.07-3.03-3.1-8-.06-11.07l85.57-86.62c1.47-1.49,3.43-2.31,5.52-2.32,2.15.02,4.06.79,5.55,2.26l113.16,111.94c3.07,3.03,3.1,8,.06,11.07l-85.56,86.62c-1.53,1.54-3.55,2.32-5.57,2.32Zm-115.58-122.16c-1.32,1.34-1.3,3.49.03,4.81l113.16,111.94c1.33,1.32,3.49,1.3,4.81-.03l85.56-86.62c1.32-1.34,1.31-3.49-.03-4.81l-113.16-111.94c-.64-.64-1.49-.98-2.39-.98h-.02c-.91,0-1.76.36-2.4,1.01l-85.57,86.62Z"/>
            </g>
            <g>
              <g>
                <path class="cls-2" d="m1882.13,651.64l38.51-38.99c2.66-2.7,7.01-2.72,9.7-.06l8.91,8.82-48.15,48.75-8.91-8.82c-2.69-2.66-2.72-7.01-.06-9.71Z"/>
                <path class="cls-1" d="m1891.1,672.37c-.58,0-1.14-.23-1.56-.64l-8.91-8.82c-3.56-3.52-3.59-9.28-.07-12.83l38.51-38.99c1.7-1.72,3.98-2.68,6.4-2.69h.05c2.4,0,4.66.93,6.38,2.62l8.91,8.82c.87.86.88,2.26.02,3.13l-48.15,48.75c-.41.42-.97.65-1.56.66h-.01Zm34.42-59.55h-.03c-1.24,0-2.4.5-3.28,1.38l-38.51,38.99h0c-1.8,1.82-1.78,4.77.04,6.58l7.34,7.26,45.04-45.6-7.34-7.26c-.88-.87-2.04-1.34-3.26-1.34Zm-43.39,38.81h.02-.02Z"/>
              </g>
              <g>
                <path class="cls-2" d="m1885.39,637.03l10.47,10.36,20.7-20.95-10.47-10.36c-5.78-5.72-15.1-5.67-20.82.12-5.72,5.79-5.66,15.11.12,20.83Zm4.86-11.82c-1.14-1.13-1.15-2.97-.02-4.12,1.13-1.14,2.97-1.15,4.11-.02,1.14,1.13,1.15,2.97.02,4.12-1.13,1.14-2.97,1.15-4.11.02Z"/>
                <path class="cls-1" d="m1895.86,649.6c-.58,0-1.14-.23-1.56-.64l-10.47-10.36c-6.64-6.57-6.7-17.32-.14-23.96,3.18-3.22,7.42-5.01,11.94-5.03,4.61-.02,8.78,1.71,12,4.89l10.47,10.36c.87.86.88,2.26.02,3.13l-20.7,20.95c-.41.42-.97.65-1.56.66h-.01Zm-.12-35.56h-.07c-3.34.02-6.47,1.34-8.82,3.72-4.85,4.91-4.8,12.85.1,17.7l8.89,8.8,17.59-17.81-8.9-8.8c-2.36-2.33-5.48-3.61-8.79-3.61Zm-3.45,14.23c-1.3,0-2.6-.49-3.6-1.48h0c-2-1.99-2.02-5.24-.04-7.24.96-.97,2.25-1.51,3.61-1.52h.03c1.36,0,2.63.52,3.6,1.48,2.01,1.98,2.03,5.23.04,7.24-1,1.01-2.32,1.52-3.64,1.52Zm-.49-4.62c.17.17.47.16.49.2.13,0,.32-.04.49-.21.27-.27.27-.72,0-.99-.28-.27-.72-.27-.99,0-.27.27-.27.72,0,.99Z"/>
              </g>
            </g>
            <g>
              <path class="cls-1" d="m1906.17,689.21l52.3-52.94c1.3-1.32,1.29-3.45-.03-4.75-1.32-1.31-3.45-1.3-4.76.02l-52.3,52.94c-1.3,1.32-1.29,3.45.03,4.75,1.32,1.31,3.45,1.3,4.76-.03Z"/>
              <path class="cls-1" d="m1915.97,698.91l52.3-52.94c1.3-1.32,1.29-3.45-.03-4.75-1.32-1.31-3.45-1.3-4.76.03l-52.3,52.94c-1.3,1.32-1.29,3.45.03,4.75,1.32,1.31,3.45,1.3,4.76-.02Z"/>
              <path class="cls-1" d="m1925.78,708.61l52.3-52.94c1.3-1.32,1.29-3.45-.03-4.75-1.32-1.31-3.45-1.3-4.76.02l-52.3,52.94c-1.3,1.32-1.29,3.45.03,4.75,1.32,1.31,3.45,1.3,4.76-.03Z"/>
            </g>
          </g>
          <g>
            <path class="cls-2" d="m1928.37,749.88l25.38-13.55s-23.44,3.25-20.81-4.74c1.35-4.11,3.38-3.9,8.7-3.98,3.89-.06,10.54-.43,16.53-.8,9.37-.59,18.05-5.21,23.68-12.74,16.34-21.86,24.25-52.31,21.04-64.96-2.33-9.2-11.39-21.77-17.95-31.86,16.97-13.43,24.93-13.18,42.09-25.02,16.86,28.12,18.8,56.02,17.31,65.42-6.33,39.82-46.76,73.38-59.28,82.92-2.41,1.84-4.71,3.8-6.88,5.91-8.66,8.4-25.24,22.4-36.95,19.47-16.52-4.15-12.85-16.08-12.85-16.08Z"/>
            <path class="cls-1" d="m1944.6,768.58c-1.34,0-2.66-.15-3.92-.47-6.38-1.6-10.79-4.5-13.11-8.63-2.85-5.06-1.37-10.04-1.31-10.25.17-.56.56-1.03,1.07-1.3l16.28-8.69c-4.85-.06-9.84-.8-11.95-3.33-1.14-1.37-1.44-3.15-.83-5.01,1.77-5.38,5.19-5.43,9.93-5.49h.84c3.21-.06,8.89-.34,16.42-.81,8.79-.55,16.82-4.87,22.05-11.85,15.67-20.95,23.83-50.59,20.67-63.09-1.86-7.35-8.48-17.33-14.32-26.13-1.15-1.73-2.27-3.43-3.34-5.06-.62-.96-.41-2.23.48-2.94,9.52-7.54,16.2-10.82,23.26-14.29,5.58-2.75,11.36-5.58,18.94-10.81.5-.35,1.13-.47,1.72-.34.6.13,1.11.5,1.43,1.02,16.25,27.1,19.42,55.43,17.59,66.91-6.46,40.65-47.66,74.83-60.13,84.33-2.36,1.8-4.61,3.73-6.68,5.74-9.97,9.67-23.68,20.49-35.1,20.49Zm-14.28-17.23c-.17,1.22-.25,3.61,1.13,6.02,1.72,3,5.18,5.17,10.3,6.45,7.78,1.95,20.47-4.95,34.87-18.91,2.2-2.13,4.58-4.18,7.08-6.09,12.14-9.25,52.23-42.48,58.44-81.51,1.13-7.13.55-33.45-15.83-61.92-6.89,4.58-12.29,7.23-17.54,9.81-6.44,3.17-12.55,6.17-20.87,12.55.72,1.09,1.45,2.2,2.2,3.32,6.04,9.1,12.88,19.41,14.93,27.5,3.41,13.47-5.02,44.91-21.41,66.83-6,8.03-15.23,12.99-25.31,13.62-7.71.48-13.31.76-16.63.81h-.85c-4.81.07-5.03.16-5.78,2.46-.18.55-.06.7.02.79,1.62,1.94,10.82,2.12,18.39,1.07,1.06-.17,2.08.49,2.41,1.51.33,1.02-.12,2.13-1.06,2.63l-24.47,13.06Z"/>
          </g>
          <path class="cls-1" d="m1942.1,496.82c17.13.29,33.24,8.11,44.13,21.35,13.52,16.45,32.4,40.82,48.26,66.55,1.7,2.75,1.91,6.22.39,9.07-10.99,20.62-31.27,17.86-46.84,27.01-2.36,1.39-5.37.77-6.94-1.47-13.58-19.36-29.43-32.22-29.43-32.22l-15.04-90.38,5.47.09Z"/>
        </g>
        <g>
          <g>
            <ellipse class="cls-1" cx="1882.94" cy="432.36" rx="57.4" ry="57.54"/>
            <ellipse class="cls-1" cx="1940.72" cy="466.17" rx="21.38" ry="21.43"/>
            <ellipse class="cls-1" cx="1963.59" cy="488.68" rx="16.68" ry="16.72"/>
            <path class="cls-1" d="m1994.97,517.83s14.1-5.99,28.63,1.28c10.79,5.4,10.22,18.7,17.64,27.67,1.51,1.83.65,4.59-1.66,5.11-6.86,1.54-19.15,2.77-30.08-4.14-16.24-10.26-20.51-24.8-20.51-24.8l5.98-5.13Z"/>
            <ellipse class="cls-1" cx="1983.76" cy="510.08" rx="15.01" ry="15.05"/>
          </g>
          <g>
            <g>
              <path class="cls-2" d="m1862.96,398.83c-3.02,2.5-4.77,3.2-7.22,5.58-4.99,4.83-9.34,19.1-17.73,22.05-.9,4.66,2.83,5.2,4.24,7.8-1.04,2.29-2.77,12.97-4.59,19.5-.64,2.29.52,4.72,2.72,5.61,3.71,1.5,7.88,2.48,12.55,2.82,0,0,23.92,27.27-.43,46.02,0,0,22.83,18.81,48.69-8.6,4.54-4.81-16.39-47.18-16.39-47.18.72-.26,10.06-3.85,11.04-11.58.36-2.84-.26-7.36-2.81-8.32-2.5-.94-6.67,1.57-9.31,6.92-.58-1.27-1.08-2.91-1.6-4.79-.71-2.58-1.23-5.53-.5-7.02-23.3-6.32-2.36-28.98-18.67-28.81Z"/>
              <path class="cls-1" d="m1871.69,516.66c-12.18,0-20.45-6.62-20.59-6.74-.52-.43-.82-1.07-.81-1.74.01-.67.33-1.3.86-1.72,5.99-4.61,9.35-10.17,9.97-16.52,1.14-11.65-7.07-22.82-9.3-25.62-4.39-.41-8.52-1.38-12.27-2.9-3.24-1.31-4.97-4.86-4.02-8.25.85-3.03,1.69-7.06,2.43-10.62.78-3.75,1.33-6.31,1.81-7.93-.26-.27-.57-.55-.91-.84-1.54-1.35-3.86-3.39-3.03-7.74.15-.77.7-1.41,1.44-1.67,4.55-1.6,8.04-7.66,11.11-13.01,1.94-3.37,3.77-6.56,5.81-8.54,1.51-1.46,2.78-2.34,4.11-3.28.98-.68,1.99-1.39,3.24-2.42.39-.32.88-.5,1.39-.51,3.24.02,5.54.73,7.07,2.34,2.4,2.52,2.19,6.25,1.96,10.2-.4,6.87-.77,13.36,10.23,16.35.64.17,1.17.62,1.44,1.23.27.6.26,1.3-.04,1.89-.02.05-.53,1.15.65,5.45.03.12.07.24.1.36,2.9-3.43,6.54-5.08,9.46-3.98,3.91,1.47,4.68,7.19,4.23,10.67-.86,6.75-6.84,10.68-10.24,12.39,8.08,16.54,19.67,42.66,15,47.61-11.35,12.03-22.26,15.53-31.11,15.53Zm-15.53-8.61c6.09,3.67,23.63,11.02,43.42-9.95,1.6-3.31-7.43-25.8-16.76-44.69-.28-.56-.3-1.22-.07-1.8s.7-1.04,1.29-1.26c.36-.13,8.78-3.3,9.61-9.79.35-2.75-.49-5.63-1.4-5.97-1.1-.41-4.29,1.24-6.55,5.83-.37.76-1.14,1.23-1.98,1.23h-.03c-.85-.01-1.62-.52-1.98-1.29-.7-1.54-1.26-3.45-1.72-5.12-.69-2.5-.99-4.5-.92-6.07-12.43-4.29-11.88-13.84-11.51-20.27.17-2.96.33-5.76-.75-6.89-.55-.57-1.58-.9-3.08-.96-1.1.88-2.05,1.53-2.89,2.12-1.24.86-2.31,1.61-3.57,2.83-1.6,1.54-3.28,4.47-5.05,7.56-3.2,5.57-6.79,11.82-12.14,14.42.06,1.04.66,1.57,1.69,2.47.82.72,1.75,1.54,2.41,2.75.33.61.36,1.34.07,1.97-.45.98-1.26,4.86-1.97,8.28-.76,3.63-1.62,7.73-2.5,10.91-.34,1.22.27,2.5,1.43,2.96,3.59,1.46,7.59,2.35,11.88,2.67.58.04,1.12.31,1.5.75.51.58,12.42,14.35,10.93,29.64-.66,6.73-3.8,12.67-9.36,17.68Z"/>
            </g>
            <g>
              <path class="cls-2" d="m1872.13,459.35s-7.97,4.94-18.44,2.92l18.44-2.92Z"/>
              <path class="cls-1" d="m1858.79,464.97c-1.74,0-3.59-.16-5.52-.53-1.2-.23-1.99-1.39-1.75-2.59.23-1.2,1.38-1.99,2.59-1.75,9.52,1.83,16.79-2.59,16.86-2.63,1.04-.64,2.4-.32,3.05.71.64,1.04.32,2.4-.71,3.05-.29.18-6.15,3.74-14.5,3.74Z"/>
            </g>
          </g>
        </g>
      </g>
      <g>
        <path class="cls-1" d="m939.95,829.4c-6.54-.04-13.21-.53-19.81-1.6-1.21-.19-2.03-1.33-1.83-2.54.2-1.21,1.33-2.04,2.54-1.83,6.33,1.02,12.73,1.54,19,1.54h.1c2.27,0,4.57-.07,6.85-.21,1.23-.04,2.27.86,2.34,2.08.07,1.22-.86,2.27-2.08,2.34-2.36.14-4.75.21-7.11.21Zm33.09-4.68c-.96,0-1.85-.64-2.13-1.61-.33-1.18.35-2.4,1.53-2.73,8.52-2.42,16.63-5.69,24.12-9.75,1.08-.58,2.42-.18,3,.89.58,1.07.18,2.42-.89,3-7.77,4.21-16.19,7.62-25.02,10.12-.2.06-.4.08-.6.08Zm-78.15-3.66c-.25,0-.51-.04-.76-.13-7.94-2.9-16.16-6.63-24.44-11.09-1.08-.58-1.48-1.92-.9-3,.58-1.07,1.92-1.48,3-.9,8.09,4.36,16.12,8,23.85,10.83,1.15.42,1.74,1.69,1.32,2.84-.33.9-1.18,1.45-2.08,1.45Zm124.17-21.78c-.58,0-1.16-.22-1.59-.67-.85-.88-.83-2.28.05-3.13,2.47-2.39,4.74-4.88,6.79-7.46-.06-.01-.12-.02-.17-.04-9.25-2.48-17.78-5.53-25.34-9.05-1.11-.52-1.59-1.83-1.07-2.94.52-1.1,1.83-1.58,2.94-1.07,7.33,3.42,15.61,6.37,24.62,8.79.64.17,1.13.6,1.41,1.15,2.3-3.24,4.26-6.61,5.89-10.07.52-1.11,1.83-1.59,2.94-1.07,1.11.52,1.58,1.83,1.07,2.94-3.71,7.93-9.09,15.33-15.99,22-.43.41-.98.62-1.54.62Zm-170.97-3.01c-.43,0-.86-.12-1.24-.38-6.87-4.66-13.91-9.81-21.54-15.75-.96-.75-1.14-2.14-.38-3.1.75-.96,2.14-1.13,3.1-.39,7.55,5.88,14.51,10.98,21.3,15.58,1.01.69,1.28,2.06.59,3.07-.43.63-1.12.97-1.83.97Zm229.11-.89h-.07c-2.82-.09-5.69-.21-8.63-.38-5.95-.34-12.03-.93-18.07-1.76-1.21-.16-2.06-1.28-1.89-2.49.17-1.21,1.28-2.07,2.49-1.89,5.93.81,11.89,1.4,17.72,1.73,2.89.16,5.73.29,8.51.37,1.22.04,2.18,1.06,2.14,2.28-.04,1.2-1.02,2.14-2.21,2.14Zm26.51-.55c-1.14,0-2.11-.88-2.2-2.03-.1-1.22.81-2.29,2.03-2.39,9.24-.75,17.69-2.09,25.81-4.12,1.18-.29,2.39.43,2.68,1.61.3,1.19-.43,2.39-1.61,2.68-8.36,2.08-17.04,3.47-26.53,4.24-.06,0-.12,0-.18,0Zm51.14-13.02c-.83,0-1.63-.47-2-1.28-.52-1.11-.04-2.42,1.07-2.94,7.6-3.55,15-7.83,22.63-13.08,1-.7,2.38-.44,3.08.57.69,1.01.44,2.39-.57,3.08-7.84,5.39-15.45,9.79-23.27,13.45-.3.14-.62.21-.94.21Zm-177.46-16.86c-.52,0-1.04-.18-1.46-.55-5.87-5.16-10.53-10.94-13.84-17.16-.83-1.56-1.59-3.22-2.25-4.94-.44-1.14.13-2.42,1.27-2.86,1.14-.43,2.42.13,2.86,1.27.6,1.55,1.28,3.04,2.02,4.44,3.07,5.75,7.4,11.11,12.86,15.92.92.81,1.01,2.21.2,3.12-.44.5-1.05.75-1.66.75Zm-171.32-1.1c-.5,0-1.01-.17-1.42-.52-6.85-5.77-13.65-11.63-20.22-17.3-.92-.8-1.03-2.19-.23-3.12.8-.93,2.19-1.03,3.12-.23,6.56,5.66,13.34,11.51,20.18,17.26.94.79,1.06,2.18.27,3.12-.44.52-1.06.79-1.69.79Zm234.38-11.58h-.03c-1.22-.02-2.2-1.02-2.19-2.24v-.82c0-4.46-.47-9.06-1.42-13.68-.68-3.31-1.84-6.81-3.46-10.42-.5-1.11,0-2.42,1.11-2.92,1.11-.5,2.42,0,2.92,1.11,1.75,3.9,3.01,7.71,3.76,11.34,1,4.91,1.51,9.81,1.51,14.56v.87c-.02,1.21-1.01,2.19-2.22,2.19Zm158.26-.06c-.62,0-1.23-.26-1.67-.76-.8-.92-.7-2.32.22-3.12,2.61-2.26,5.33-4.7,8.09-7.25,3.87-3.58,7.55-7.24,10.93-10.89.83-.9,2.23-.95,3.13-.12.9.83.95,2.23.12,3.13-3.46,3.74-7.22,7.48-11.17,11.13-2.79,2.58-5.55,5.05-8.19,7.35-.42.36-.94.54-1.45.54Zm-433.03-22.9c-.5,0-1.01-.17-1.42-.52-7.73-6.48-14.46-11.91-20.6-16.6-.97-.74-1.16-2.13-.41-3.1s2.13-1.15,3.1-.41c6.19,4.73,12.98,10.21,20.75,16.73.94.79,1.06,2.18.27,3.12-.44.52-1.07.79-1.7.79Zm193.72-11.71c-.13,0-.26-.01-.39-.03-1.2-.21-2.01-1.36-1.79-2.56,1.81-10.21,6.79-18.63,14.04-23.71,1-.7,2.38-.46,3.08.54.7,1,.46,2.38-.54,3.08-6.27,4.4-10.61,11.8-12.22,20.85-.19,1.07-1.12,1.83-2.18,1.83Zm274.94-4.5c-.42,0-.84-.12-1.22-.37-1.02-.67-1.3-2.04-.63-3.07,4.9-7.43,8.98-15.18,12.14-23.05.45-1.13,1.74-1.7,2.88-1.23,1.13.45,1.68,1.74,1.23,2.88-3.27,8.14-7.49,16.17-12.55,23.84-.43.64-1.13.99-1.85.99Zm-214.02-8.38c-.56,0-1.13-.21-1.56-.64-6.71-6.66-14.12-11.18-21.42-13.05-1.18-.3-1.9-1.51-1.59-2.69.3-1.18,1.51-1.89,2.69-1.59,8.06,2.07,16.17,6.98,23.44,14.19.87.86.87,2.26.01,3.13-.43.43-1,.65-1.57.65Zm-297.02-7.35c-.41,0-.82-.11-1.19-.35-7.29-4.64-14.96-9.1-22.8-13.27-1.08-.57-1.49-1.91-.92-2.99.57-1.08,1.92-1.49,2.99-.92,7.94,4.22,15.71,8.74,23.1,13.44,1.03.66,1.33,2.02.68,3.05-.42.66-1.14,1.02-1.87,1.02Zm-224.37-24.84c-.68,0-1.35-.31-1.78-.9-.72-.98-.52-2.37.47-3.09,7.22-5.33,15.1-9.83,23.44-13.39,1.12-.48,2.42.04,2.9,1.17.48,1.13-.04,2.42-1.17,2.9-8.02,3.42-15.61,7.75-22.55,12.88-.4.29-.86.43-1.31.43Zm177.53-.08c-.3,0-.6-.06-.88-.19-8.16-3.56-16.42-6.79-24.56-9.58-1.16-.4-1.77-1.65-1.38-2.81.4-1.16,1.65-1.77,2.81-1.38,8.25,2.83,16.63,6.1,24.9,9.71,1.12.49,1.63,1.79,1.14,2.91-.36.83-1.18,1.33-2.03,1.33Zm577.42-8.3c-.12,0-.25-.01-.38-.03-1.2-.21-2.01-1.35-1.81-2.55,1.27-7.43,1.92-15.26,1.92-23.27,0-.92,0-1.83-.02-2.75-.02-1.22.95-2.23,2.17-2.25h.04c1.2,0,2.19.96,2.21,2.17.02.95.03,1.89.02,2.84,0,8.26-.67,16.34-1.98,24.01-.18,1.08-1.12,1.84-2.18,1.84Zm-627.63-8.81c-.17,0-.35-.02-.52-.06-8.79-2.12-17.49-3.72-25.86-4.76-1.21-.15-2.07-1.26-1.92-2.47.15-1.21,1.28-2.09,2.47-1.92,8.53,1.06,17.4,2.69,26.35,4.85,1.19.29,1.92,1.48,1.63,2.67-.24,1.01-1.15,1.69-2.15,1.69Zm-78.98-3.65c-1.04,0-1.96-.73-2.17-1.79-.23-1.2.55-2.36,1.75-2.59,8.48-1.64,17.48-2.55,26.76-2.7h.04c1.2,0,2.19.97,2.21,2.18.02,1.22-.95,2.23-2.18,2.25-9.02.14-17.77,1.03-25.99,2.62-.14.03-.28.04-.42.04Zm706.04-40.39c-1.07,0-2-.77-2.18-1.85-1.33-8.14-3.24-16.78-5.68-25.69-.32-1.18.37-2.39,1.55-2.72,1.18-.31,2.39.37,2.72,1.55,2.47,9.05,4.42,17.84,5.78,26.13.2,1.21-.62,2.34-1.83,2.54-.12.02-.24.03-.36.03Z"/>
        <path class="cls-1" d="m536.77,989.76c-10.42,0-18.89-8.51-18.89-18.98s8.48-18.98,18.89-18.98,18.89,8.51,18.89,18.98-8.48,18.98-18.89,18.98Zm0-33.53c-7.98,0-14.47,6.53-14.47,14.55s6.49,14.55,14.47,14.55,14.47-6.53,14.47-14.55-6.49-14.55-14.47-14.55Z"/>
        <g>
          <path class="cls-1" d="m1655.76,1038c-.34,0-.68-.08-1.01-.24l-15.28-7.82c-1.09-.56-1.52-1.89-.96-2.98.56-1.09,1.89-1.52,2.98-.96l15.28,7.83c1.09.56,1.52,1.89.96,2.98-.39.76-1.17,1.2-1.97,1.2Z"/>
          <path class="cls-1" d="m1620.17,1019.77c-.34,0-.68-.08-1.01-.24l-15.28-7.82c-1.09-.56-1.52-1.89-.96-2.98.56-1.09,1.89-1.52,2.98-.96l15.28,7.82c1.09.56,1.52,1.89.96,2.98-.39.76-1.17,1.2-1.97,1.2Z"/>
          <path class="cls-1" d="m1635.52,1014.82c-.34,0-.68-.08-1-.24-1.09-.56-1.52-1.89-.96-2.98l7.81-15.27c.56-1.09,1.89-1.51,2.98-.96,1.09.56,1.52,1.89.96,2.98l-7.81,15.27c-.39.76-1.17,1.21-1.97,1.21Z"/>
          <path class="cls-1" d="m1617.33,1050.39c-.34,0-.68-.08-1-.24-1.09-.56-1.52-1.89-.96-2.98l7.81-15.27c.56-1.09,1.89-1.51,2.98-.96,1.09.56,1.52,1.89.96,2.98l-7.81,15.27c-.39.76-1.17,1.21-1.97,1.21Z"/>
        </g>
      </g>
    </g>
  </g>
</svg>