<svg width="30" height="30" viewBox="0 0 30 30" fill="none" xmlns="http://www.w3.org/2000/svg">
<rect width="30" height="30" fill="#BDBDBD"/>
<g id="Home">
<rect width="1440" height="8356" transform="translate(-1201 -7897)" fill="white"/>
<g id="Footer block">
<g id="Footer ">
<path d="M-1101 -10C-1101 -34.8528 -1080.85 -55 -1056 -55H95C119.853 -55 140 -34.8528 140 -10V459H-1101V-10Z" fill="#191A23"/>
<g id="Navigation and contacts">
<g id="Elements">
<g id="Social icons">
<path id="Social icon" d="M30 15.0913C30 6.75456 23.2863 0 15 0C6.71371 0 0 6.75456 0 15.0913C0 22.6369 5.44355 28.9047 12.6411 30V19.4726H8.83064V15.0913H12.6411V11.8053C12.6411 8.03245 14.879 5.90264 18.2661 5.90264C19.9597 5.90264 21.6532 6.2069 21.6532 6.2069V9.91886H19.7782C17.9032 9.91886 17.2984 11.0751 17.2984 12.2921V15.0913H21.4718L20.8065 19.4726H17.2984V30C24.496 28.9047 30 22.6369 30 15.0913Z" fill="white"/>
</g>
</g>
</g>
</g>
</g>
</g>
</svg>
