<svg width="541" height="367" viewBox="0 0 541 367" fill="none" xmlns="http://www.w3.org/2000/svg">
<path d="M319.123 95.1868C387.562 132.937 446.295 172.935 485.928 207.077C505.747 224.151 520.77 239.742 529.843 252.842C534.381 259.393 537.413 265.297 538.825 270.433C540.236 275.568 540.017 279.89 538.117 283.333C536.217 286.777 532.679 289.268 527.584 290.813C522.486 292.359 515.874 292.943 507.913 292.6C491.993 291.913 470.791 287.524 445.777 279.868C395.757 264.558 330.594 236.216 262.155 198.465C193.716 160.715 134.982 120.717 95.3492 86.5747C75.5302 69.5012 60.5081 53.9098 51.4345 40.8102C46.8971 34.2595 43.8635 28.3547 42.4517 23.2182C41.0406 18.0844 41.2601 13.7628 43.1595 10.319C45.0591 6.87522 48.5976 4.38362 53.693 2.83851C58.7907 1.29267 65.4034 0.708688 73.3647 1.05213C89.2851 1.739 110.486 6.12806 135.5 13.784C185.52 29.0937 250.683 57.4361 319.123 95.1868Z" stroke="black"/>
<path d="M298.892 131.861C367.331 169.611 426.065 209.609 465.697 243.751C485.517 260.825 500.539 276.416 509.613 289.516C514.15 296.066 517.183 301.971 518.595 307.107C520.006 312.241 519.786 316.563 517.886 320.007C515.987 323.451 512.449 325.942 507.353 327.487C502.256 329.033 495.644 329.617 487.683 329.274C471.762 328.587 450.561 324.198 425.546 316.542C375.526 301.232 310.364 272.89 241.925 235.139C173.485 197.389 114.751 157.391 75.1188 123.249C55.2997 106.175 40.2776 90.5836 31.204 77.484C26.6666 70.9333 23.6331 65.0285 22.2212 59.892C20.8101 54.7582 21.0297 50.4366 22.9291 46.9929C24.8286 43.5491 28.3672 41.0574 33.4625 39.5123C38.5603 37.9665 45.173 37.3825 53.1343 37.726C69.0546 38.4128 90.2558 42.8019 115.27 50.4578C165.29 65.7675 230.453 94.11 298.892 131.861Z" stroke="black"/>
<path d="M278.664 168.535C347.103 206.285 405.836 246.283 445.469 280.425C465.288 297.499 480.311 313.09 489.384 326.19C493.922 332.741 496.954 338.645 498.366 343.782C499.777 348.916 499.558 353.238 497.658 356.682C495.758 360.125 492.22 362.616 487.125 364.161C482.027 365.707 475.415 366.292 467.454 365.948C451.534 365.261 430.332 360.872 405.318 353.216C355.298 337.906 290.135 309.564 221.696 271.814C153.257 234.063 94.5229 194.065 54.8902 159.923C35.0712 142.849 20.0491 127.258 10.9755 114.158C6.43812 107.608 3.40456 101.703 1.99271 96.5664C0.581605 91.4325 0.801165 87.1109 2.70054 83.6672C4.60013 80.2234 8.13865 77.7318 13.234 76.1867C18.3318 74.6408 24.9445 74.0568 32.9057 74.4003C48.8261 75.0871 70.0273 79.4762 95.041 87.1321C145.061 102.442 210.224 130.784 278.664 168.535Z" stroke="black"/>
</svg>
